<svg id="Layer_1" data-name="Layer 1" xmlns="http://www.w3.org/2000/svg" viewBox="0 0 367.7 92.1"><defs><style>.cls-1{fill:#f3f3f3;}</style></defs><path class="cls-1" d="M99.7,67a2.2,2.2,0,0,0-2.4-1h-.1l-2.4.5c-.2.1-.4.1-.5.3a4.2,4.2,0,0,0-.6,1.4,22.5,22.5,0,0,0,0,2.6,2.6,2.6,0,0,0,.7,1.7,4.1,4.1,0,0,0,2.8,1.3c1.1,0,1.5-.2,1.8-.8a9.8,9.8,0,0,0,1.3-4.4,2.3,2.3,0,0,0-.4-1.4Z" transform="translate(-13.2 -12.6)"/><path class="cls-1" d="M68.3,67c.4-.1.5-.2.4-.6a.4.4,0,0,0-.1-.3,4.2,4.2,0,0,0-.4-1c-.3-.4-.6-.9-1.1-.8a5,5,0,0,0-1.9.3.7.7,0,0,0-.6.4l-.5.6a3.9,3.9,0,0,0-1,1.6c-.1.2-.1.2.1.2a12.3,12.3,0,0,1,2.7-.2A9.7,9.7,0,0,0,68.3,67Z" transform="translate(-13.2 -12.6)"/><path class="cls-1" d="M354.9,12.6,21.1,41.2l-7.9,63.5,367.7-6.4ZM57.6,81.3a2.6,2.6,0,0,1-2.5,2.1,2.5,2.5,0,0,1-2.3-2.2c-.2-1.3-.2-2.5-.3-3.8a13.2,13.2,0,0,0-.4-3.4,2.5,2.5,0,0,0-.1-.8.9.9,0,0,0-.1-.5c-.2-.7-.9-.7-1.6-.4a3.3,3.3,0,0,0-2,2.3v.7a22.8,22.8,0,0,1,.2,2.6,10.5,10.5,0,0,1,0,2.5,2.2,2.2,0,0,1-3.1,2,2.8,2.8,0,0,1-1.5-2,29.7,29.7,0,0,1-.3-4.2c-.1-1.5-.1-3-.3-4.5a43.5,43.5,0,0,0-.6-5.2c-.3-2.2-.6-4.3-.7-6.5a3.3,3.3,0,0,1,.1-1.7,1.6,1.6,0,0,1,2.6-.6,5.1,5.1,0,0,1,.9,1.6,23.3,23.3,0,0,1,1.1,5.1c.2,1.1.3,2.3.5,3.4V68c0,.2.1.2.3.1l.9-.4a4.9,4.9,0,0,1,4.4.3A8.9,8.9,0,0,1,55,69.6,7.5,7.5,0,0,1,56.8,73a35.5,35.5,0,0,1,.8,4.7,10.9,10.9,0,0,1,.1,1.9A10.3,10.3,0,0,1,57.6,81.3Zm16.1-5.1A6.7,6.7,0,0,1,71.5,79a6.2,6.2,0,0,1-3.4,1.3,7,7,0,0,1-2.5,0,6.4,6.4,0,0,1-3.8-1.8,12.3,12.3,0,0,1-2.4-3.1,11.4,11.4,0,0,1-.9-6.8,8.5,8.5,0,0,1,.4-2.2,15.2,15.2,0,0,1,.9-2.8l.9-1a6.1,6.1,0,0,1,2.1-1.8,5.4,5.4,0,0,1,2.1-.5h2.3a4.8,4.8,0,0,1,3.2,1.3,9.2,9.2,0,0,1,2.2,2.6,8,8,0,0,1,.8,4,2.5,2.5,0,0,1-.6,1.6,1.7,1.7,0,0,1-1.3.7,12.6,12.6,0,0,0-2.8.5,8.5,8.5,0,0,1-3.2.2,12.1,12.1,0,0,1-1.9,0c-.2,0-.3.1-.2.3a5.1,5.1,0,0,0,1.2,2.3,6.6,6.6,0,0,0,1.5,1.4,3.3,3.3,0,0,0,3.2.3A2.8,2.8,0,0,0,71,73.6a1.7,1.7,0,0,1,.4-1.1,1.4,1.4,0,0,1,1.6-.6,1.5,1.5,0,0,1,1.2,1.3A5.3,5.3,0,0,1,73.7,76.2Zm7.2,6.2a2.1,2.1,0,0,1-2.8.4,2.9,2.9,0,0,1-.9-1.5,21.7,21.7,0,0,1-.4-2.5c-.1-1.2-.3-2.3-.4-3.5s-.1-1.5-.2-2.2-.3-2.1-.5-3.2-.4-2.4-.5-3.7-.2-1.6-.2-2.4a14.8,14.8,0,0,1,0-4.2,2.3,2.3,0,0,1,1-1.7,2,2,0,0,1,3.1.8,3.2,3.2,0,0,1,.5,1.9c.2,1.5.5,3.1.7,4.6s.3,3.1.5,4.7.2,4.5.3,6.7l.3,3.8v.3A2.6,2.6,0,0,1,80.9,82.4Zm7.3,0a2.2,2.2,0,0,1-2.8.4,2.4,2.4,0,0,1-.9-1.5,10.9,10.9,0,0,1-.4-2.5c-.1-1.2-.4-2.3-.5-3.5s-.1-1.5-.1-2.2-.4-2.1-.6-3.2a22.1,22.1,0,0,1-.4-3.7l-.3-2.4a19.7,19.7,0,0,1,0-4.2,2.5,2.5,0,0,1,1.1-1.7,2.1,2.1,0,0,1,3.1.8,5.9,5.9,0,0,1,.5,1.9c.1,1.5.4,3.1.6,4.6s.3,3.1.5,4.7.2,4.5.4,6.7.2,2.5.3,3.8v.3A2.6,2.6,0,0,1,88.2,82.4Zm15-7.6a6.4,6.4,0,0,1-5.3,3.6,14.3,14.3,0,0,1-2.9.1,6.2,6.2,0,0,1-2.7-1.3A6.6,6.6,0,0,1,90,74a10.2,10.2,0,0,1,.1-7.7,6.2,6.2,0,0,1,1-1.6,6,6,0,0,1,1.2-1.1,4.5,4.5,0,0,1,2.5-.7h1.6a2.6,2.6,0,0,1,2.4-.5,7.7,7.7,0,0,1,3.8,2.2,6.1,6.1,0,0,1,1.7,4.2c0,.4.1.8.1,1.1A9.6,9.6,0,0,1,103.2,74.8Zm7.8,8.4a6.4,6.4,0,0,1-1.6,2.9,3.6,3.6,0,0,1-1.1,1,2.3,2.3,0,0,1-2.8-.5,2.1,2.1,0,0,1,0-2.8c0-.1.1-.1.1-.2a5.2,5.2,0,0,0,1.4-3.3,3.4,3.4,0,0,0,.1-1,3.2,3.2,0,0,1,.3-.9,2,2,0,0,1,1.7-1.3,1.9,1.9,0,0,1,1.8,1.2l.3.6a16.8,16.8,0,0,1,.2,2A7.9,7.9,0,0,1,111,83.2Zm12.3-27.8a2.9,2.9,0,0,1,1.5-2.3,2.8,2.8,0,0,1,2.9.2,3.4,3.4,0,0,1,1.3,3.3,2.6,2.6,0,0,1-2.8,1.7,6.4,6.4,0,0,1-1.8-.6A2.6,2.6,0,0,1,123.3,55.4ZM132,78.2a2.2,2.2,0,0,1-3.2.4,3.6,3.6,0,0,1-.8-1.5,47,47,0,0,1-1.3-7.5c-.1-1.5-.4-3-.5-4.5a7.7,7.7,0,0,1-.2-1.5,2.7,2.7,0,0,1,1.2-2.5,2.6,2.6,0,0,1,2.7.1,2.9,2.9,0,0,1,1.1,1.9,14.3,14.3,0,0,0,.6,3.5,55.8,55.8,0,0,1,.9,5.9,28.3,28.3,0,0,1,.2,2.9A4.7,4.7,0,0,1,132,78.2Zm7.2-18.8a1.9,1.9,0,0,1-1.9-.2,4.4,4.4,0,0,1-1.2-1.5,10,10,0,0,0-.8-1.4l-.9-1.5a3.8,3.8,0,0,1-.7-2.7,2.5,2.5,0,0,1,3.8-1.8,4.9,4.9,0,0,1,1.4,1.8,11.9,11.9,0,0,1,.8,2c.2,1,.5,1.9.7,2.9a1.1,1.1,0,0,1,.1.5A2,2,0,0,1,139.2,59.4Zm22.6,18.8a2.7,2.7,0,0,1-3,0,2.6,2.6,0,0,1-1.2-1.9c-.3-3.4-1-6.6-1-10a4.9,4.9,0,0,0-.4-2.1.1.1,0,0,1-.1-.1,20,20,0,0,1-1,2.1,7.1,7.1,0,0,1-1,1.4,2.6,2.6,0,0,1-3.3.6,10.4,10.4,0,0,1-2.9-1.9l-.8-1a.5.5,0,0,0-.1.5,33.3,33.3,0,0,1-.2,5.5,10.9,10.9,0,0,1-.8,3.1,2.2,2.2,0,0,1-2.1,1.2,2.1,2.1,0,0,1-1.7-1.2,4.7,4.7,0,0,1-.6-2,99.9,99.9,0,0,1-.3-10.9c0-.7-.1-1.4-.1-2.1s.1-1.4,0-2.2a3.3,3.3,0,0,1,.4-1.9,2.5,2.5,0,0,1,4.2-.5,14,14,0,0,1,2.6,3.3,14.3,14.3,0,0,0,2.4,3.1l.6.5c.2.2.3.2.5-.1s1.4-2.6,2-3.9a22.3,22.3,0,0,1,2-3,2.5,2.5,0,0,1,4.3.5,12.1,12.1,0,0,1,.8,2.5,56.4,56.4,0,0,1,1.1,9.2c.1,1.4.3,2.8.4,4.2s.4,2.9.5,4.4A3,3,0,0,1,161.8,78.2Zm54.8-6a15.6,15.6,0,0,1-7,12,16.3,16.3,0,0,1-5.8,2.7,12.6,12.6,0,0,1-3.9.4,14,14,0,0,1-9.3-3.3l-3.9-3.2a11.9,11.9,0,0,1-3.9-6.6,5,5,0,0,1,6.4-5.9,7.9,7.9,0,0,1,3.9,3.3c1,1.6,4.3,3.4,6.1,3.2s5-1.9,4.9-5.2a3.8,3.8,0,0,0-1.5-2.9,12.7,12.7,0,0,0-5.7-2.5,21.7,21.7,0,0,1-7.3-2.8,10.8,10.8,0,0,1-5.3-9.1,18.2,18.2,0,0,1,2.2-10c2.9-5.4,7.9-8,13.8-6.7l4.6,1.3a7.9,7.9,0,0,1,3.1,1.7,4,4,0,0,1-1.3,6.7,21.3,21.3,0,0,1-7.5,1.5,3,3,0,0,0-3.2,3.3,1.1,1.1,0,0,0,.6,1l.7.3a44.5,44.5,0,0,0,5.7,2.2,23.3,23.3,0,0,1,8.2,4.4,13.9,13.9,0,0,1,5.3,9.7A33.8,33.8,0,0,1,216.6,72.2Zm1.5-29.4a5,5,0,0,1,2.8-4.2,4.7,4.7,0,0,1,5.2.4c1.9,1.3,3,4,2.3,6a4.6,4.6,0,0,1-5,3.1,7.7,7.7,0,0,1-3.3-1.2A4.5,4.5,0,0,1,218.1,42.8Zm15.8,41.5a3.7,3.7,0,0,1-5.7.8,5.6,5.6,0,0,1-1.5-2.7,80.2,80.2,0,0,1-2.4-13.7l-.9-8.2a27,27,0,0,1-.4-2.8,4.2,4.2,0,0,1,2-4.4,4.7,4.7,0,0,1,5,0,4.5,4.5,0,0,1,2.1,3.5,43.7,43.7,0,0,0,1.1,6.3,96.1,96.1,0,0,1,2,15.1,4.9,4.9,0,0,1,.1,1.2A8,8,0,0,1,233.9,84.3Zm61.7-5.1a5.9,5.9,0,0,1-11.7-.2c-.2-2.2-.7-4.4-1.1-6.5a25.1,25.1,0,0,1-.4-2.7c-.3-3.5-.9-7-1.5-10.5a1.1,1.1,0,0,0-.2-.8c-.4,0-.5.3-.6.5l-2,3a9.7,9.7,0,0,1-2.3,2.2,5.4,5.4,0,0,1-6.4-.5,4.9,4.9,0,0,0-2-1.1,26.3,26.3,0,0,1-3-1.4,3.7,3.7,0,0,0-.2,1.8,64.7,64.7,0,0,1-1.1,10.7,10.9,10.9,0,0,1-.7,2.4c-.9,2.2-2.3,3.8-4.8,4a4.2,4.2,0,0,1-4.2-2.2,6.2,6.2,0,0,1-.9-3.2c-.1-3-.2-6-.1-9l.3-10.7V49.1a17.6,17.6,0,0,1,.7-4.5c1.3-4.3,5.4-5.9,9.2-3.4a22.1,22.1,0,0,1,4.1,4c1.5,1.8,3,3.7,4.3,5.6l.7.9a39.5,39.5,0,0,0,3.5-5.2,27.3,27.3,0,0,1,5.9-7.6,6.5,6.5,0,0,1,3.4-1.7,5.6,5.6,0,0,1,6.4,4.1,17.8,17.8,0,0,1,.7,3.9c.7,6.6,1.9,13,2.7,19.6a93.3,93.3,0,0,1,1.4,11.7A24.4,24.4,0,0,1,295.6,79.2ZM297.3,40a5,5,0,0,1,2.7-4.2,4.7,4.7,0,0,1,5.3.3,5.8,5.8,0,0,1,2.3,6,4.7,4.7,0,0,1-5,3.1,7.7,7.7,0,0,1-3.3-1.2A4.3,4.3,0,0,1,297.3,40Zm15.8,41.4a3.7,3.7,0,0,1-5.7.8,5.6,5.6,0,0,1-1.5-2.7,64.5,64.5,0,0,1-2.4-13.7c-.3-2.7-.7-5.4-1-8.1l-.3-2.9a4.4,4.4,0,0,1,1.9-4.4,4.7,4.7,0,0,1,5,0,4.4,4.4,0,0,1,2.2,3.5,31.9,31.9,0,0,0,1.1,6.3c1.2,5,1.5,10.1,2,15.1,0,.4.1.8.1,1.2A8.7,8.7,0,0,1,313.1,81.4Zm31.3-9.3c-1.4,3-4.6,3.8-7.5,2.2a15.2,15.2,0,0,1-3.9-3.7c-2-2.4-3.6-5-5.6-7.4-.2-.2-.2-.5-.5-.5s-.2.5-.2.7a33,33,0,0,1-1.5,6.2,6.1,6.1,0,0,1-2.2,3,4.5,4.5,0,0,1-7-3.1,19.3,19.3,0,0,1,.2-4.8c.2-4.1.9-8.1,1.4-12.2a37,37,0,0,1,.9-4.8,4.7,4.7,0,0,1,8-2.1,41.8,41.8,0,0,1,7,8.6,11.3,11.3,0,0,0,1,1.3,44.3,44.3,0,0,0-.6-5.1,6.6,6.6,0,0,1,0-3.7,4.4,4.4,0,0,1,3.9-3.1,4.8,4.8,0,0,1,4.3,2.5,18.2,18.2,0,0,1,1.3,5.1,149.4,149.4,0,0,1,1.7,16.4A9.9,9.9,0,0,1,344.4,72.1Z" transform="translate(-13.2 -12.6)"/></svg>