<svg xmlns="http://www.w3.org/2000/svg" xmlns:xlink="http://www.w3.org/1999/xlink" viewBox="0 0 680.8 481.6"><defs><style>.cls-1{fill:#ccc;}.cls-2{fill:#333;}.cls-3{fill:#1a1a1a;}.cls-4{fill:#999;}.cls-5{fill:#e6e6e6;}.cls-6{fill:#b3b3b3;}.cls-7{fill:url(#linear-gradient);}.cls-10,.cls-11,.cls-30,.cls-34,.cls-35,.cls-36,.cls-37,.cls-38,.cls-39,.cls-49,.cls-8,.cls-9{fill:none;}.cls-10,.cls-11,.cls-8,.cls-9{stroke:#e6e6e6;}.cls-11,.cls-30,.cls-31,.cls-34,.cls-35,.cls-36,.cls-37,.cls-49,.cls-8,.cls-9{stroke-miterlimit:10;}.cls-34,.cls-36,.cls-39,.cls-9{stroke-width:0.5px;}.cls-10,.cls-11,.cls-36,.cls-37{stroke-linecap:round;}.cls-10{stroke-linejoin:round;}.cls-12{fill:#444;}.cls-13{fill:url(#linear-gradient-2);}.cls-14{fill:url(#linear-gradient-3);}.cls-15,.cls-16,.cls-17,.cls-25,.cls-32{fill:#f2f2f2;}.cls-16,.cls-17{font-size:5px;}.cls-16{font-family:SFProDisplay-Bold, SF Pro Display;font-weight:700;}.cls-17,.cls-25{font-family:SFProDisplay-Regular, SF Pro Display;}.cls-18{letter-spacing:-0.01em;}.cls-19{letter-spacing:-0.13em;}.cls-20{letter-spacing:-0.02em;}.cls-21{fill:#666;}.cls-22{fill:#fc605c;}.cls-23{fill:#fdbc40;}.cls-24{fill:#34c648;}.cls-25{font-size:4.5px;}.cls-26{letter-spacing:-0.01em;}.cls-27{letter-spacing:0em;}.cls-28{letter-spacing:-0.02em;}.cls-29{fill:#0075c3;}.cls-30,.cls-31{stroke:#f2f2f2;stroke-width:0.2px;}.cls-31{fill:blue;}.cls-32{font-size:4px;font-family:Avenir-Light, Avenir;font-weight:300;}.cls-33{fill:#4d4d4d;}.cls-34,.cls-35,.cls-36,.cls-37,.cls-39{stroke:#999;}.cls-35,.cls-37,.cls-49{stroke-width:0.4px;}.cls-39{stroke-linejoin:bevel;}.cls-40{letter-spacing:-0.03em;}.cls-41{letter-spacing:-0.04em;}.cls-42{font-size:6px;font-family:AndaleMono, Andale Mono;}.cls-42,.cls-47{fill:gray;}.cls-43{fill:#569cd6;}.cls-44{fill:#9cdcfe;}.cls-45{fill:#d4d4d4;}.cls-46{fill:#ce9178;}.cls-48{fill:#6a9955;}.cls-49{stroke:#404040;}</style><linearGradient id="linear-gradient" x1="255.27" y1="470.32" x2="358.6" y2="470.32" gradientUnits="userSpaceOnUse"><stop offset="0" stop-color="#ccc"/><stop offset="0.16" stop-color="gray"/><stop offset="0.82" stop-color="gray"/><stop offset="0.89" stop-color="#7b7b7b"/><stop offset="0.98" stop-color="#6c6c6c"/><stop offset="1" stop-color="#666"/></linearGradient><linearGradient id="linear-gradient-2" x1="422.96" y1="341.54" x2="422.96" y2="328.25" gradientUnits="userSpaceOnUse"><stop offset="0" stop-color="#4d4d4d"/><stop offset="0.59" stop-color="#4f4f4f"/><stop offset="0.81" stop-color="#565656"/><stop offset="0.96" stop-color="#616161"/><stop offset="1" stop-color="#666"/></linearGradient><linearGradient id="linear-gradient-3" x1="183.75" y1="165.75" x2="668.79" y2="165.75" gradientUnits="userSpaceOnUse"><stop offset="0" stop-color="#7e6294"/><stop offset="0.1" stop-color="#75689b"/><stop offset="0.27" stop-color="#5b77ac"/><stop offset="0.48" stop-color="#3290c9"/><stop offset="0.57" stop-color="#1e9cd7"/><stop offset="0.87" stop-color="#0075be"/><stop offset="0.99" stop-color="#005b97"/></linearGradient></defs><g id="Cover"><rect class="cls-1" x="170.1" width="510.8" height="341.53" rx="12.3"/><rect class="cls-2" x="171.5" y="1.6" width="507.9" height="337.97" rx="12.3"/><rect class="cls-3" x="172.1" y="2.2" width="506.4" height="326.97" rx="12.3"/></g><g id="Base"><path class="cls-4" d="M566.6,481.6H20.2c-13,0-20.4-2.8-20.2-6.8.1-1.5,0-11.6,0-11.6L157.6,356.5c6.8-5,20.7-9,36.2-9H652.4c5.8,0,22.3-5.2,22.3-5.2l-.7,14.2L607.6,469.7C603,476.2,584.6,481.6,566.6,481.6Z"/><path class="cls-5" d="M566.6,469.6H20.2c-18,0-25.3-5.4-16.4-11.9L157.6,344.5c6.8-5,20.7-9,36.2-9H652.4c15.4,0,25.1,4,21.6,9L607.6,457.7C603,464.2,584.6,469.6,566.6,469.6Z"/></g><g id="Touchpad"><path class="cls-1" d="M219.7,454.2c-2,0-2.8-.4-2.8-.5h.1L239.4,433a11.5,11.5,0,0,1,5-.9H425.9c2.2,0,3,.4,3,.5L411,453.2c-.4.5-2.5,1-4.9,1Z"/><path class="cls-6" d="M425.9,432.3a5.5,5.5,0,0,1,2.6.4l-17.7,20.4a9.8,9.8,0,0,1-4.7.9H219.7a5.1,5.1,0,0,1-2.4-.4l22.3-20.4a10.4,10.4,0,0,1,4.8-.9H425.9m0-.5H244.4c-2.2,0-4.5.5-5.1,1l-22.5,20.6c-.7.6.7,1.1,2.9,1.1H406.1c2.3,0,4.6-.5,5.1-1.1l17.9-20.6c.4-.5-1-1-3.2-1Z"/><path class="cls-1" d="M406.1,454.5H219.7a6.5,6.5,0,0,1-2.2-.3c-.8-.2-.4-.5,0-.8l193.3-.3a4.4,4.4,0,0,1-2.4,1.2Z"/></g><g id="Groove_for_Cover" data-name="Groove for Cover"><path class="cls-7" d="M350.1,473.8H263.8c-5.9.1-8.6-1.2-8.5-4.5h0c0-1.8,0-2.5,3.7-2.5h95.9c3.7,0,3.7.7,3.7,2.5h0C358.6,471.8,354.5,473.8,350.1,473.8Z"/></g><g id="Keyboard_Groove" data-name="Keyboard Groove"><path class="cls-1" d="M97.1,421.1a1.3,1.3,0,0,1-1.1-.7,1.2,1.2,0,0,1,.4-1.3l83.5-67.6a6.9,6.9,0,0,1,4.4-1.5H635.9a1.1,1.1,0,0,1,1,.6,1.1,1.1,0,0,1-.1,1.2l-44,66.3a6.5,6.5,0,0,1-5.6,3Z"/><path class="cls-6" d="M635.9,350.2a1,1,0,0,1,.8.5.9.9,0,0,1-.1.9l-44,66.4a6.5,6.5,0,0,1-5.4,2.9H97.1a.8.8,0,0,1-.8-.6,1,1,0,0,1,.2-1l83.6-67.6a7.2,7.2,0,0,1,4.2-1.5H635.9m0-.5H184.3a7.1,7.1,0,0,0-4.5,1.6L96.2,418.9a1.4,1.4,0,0,0,.9,2.5H587.2a7,7,0,0,0,5.8-3.1l44-66.4a1.4,1.4,0,0,0-1.1-2.2Z"/><path class="cls-1" d="M96.5,419.3c-1,.8-.8,2.1.6,2.1H587.2c2.3,0,3.9-1.2,5.2-3.1Z"/></g><g id="Keyboard"><g id="Keyboard_keys" data-name="Keyboard keys"><g id="Keyboard_keys_spare_copy" data-name="Keyboard keys (spare) copy"><path class="cls-2" d="M323.4,367.3a5.7,5.7,0,0,1-3.5,1.4H297.5c-1.1,0-1.3-.6-.5-1.4l7.6-6.8a6.3,6.3,0,0,1,3.5-1.3h22.1c1.1,0,1.3.6.5,1.3Z"/><path class="cls-2" d="M355,367.3a6.1,6.1,0,0,1-3.4,1.4H329.2c-1.1,0-1.4-.6-.6-1.4l7.3-6.8a6.3,6.3,0,0,1,3.5-1.3h22c1.1,0,1.4.6.6,1.3Z"/><path class="cls-2" d="M386.7,367.3a6.4,6.4,0,0,1-3.5,1.4H360.9c-1.1,0-1.4-.7-.6-1.4l6.9-6.8a6.3,6.3,0,0,1,3.5-1.3h22c1.1,0,1.4.6.6,1.4Z"/><path class="cls-2" d="M418.3,367.2a5.6,5.6,0,0,1-3.4,1.5H392.5c-1.1,0-1.3-.7-.6-1.5l6.6-6.6a5.4,5.4,0,0,1,3.4-1.4H424c1.1,0,1.4.6.6,1.4Z"/><path class="cls-2" d="M196.8,367.4a6.9,6.9,0,0,1-3.6,1.3H170.8c-1.1,0-1.3-.6-.4-1.3l9-7a6.2,6.2,0,0,1,3.5-1.2H205c1.1,0,1.3.5.5,1.2Z"/><path class="cls-2" d="M228.4,367.4a6.3,6.3,0,0,1-3.5,1.3H202.5c-1.1,0-1.3-.6-.5-1.3l8.7-7a6.2,6.2,0,0,1,3.5-1.2h22.1c1.1,0,1.3.5.5,1.2Z"/><path class="cls-2" d="M260.1,367.4a6.5,6.5,0,0,1-3.5,1.3H234.2c-1.1,0-1.3-.6-.5-1.3l8.3-7a6.2,6.2,0,0,1,3.5-1.2h22.1c1.1,0,1.3.5.5,1.3Z"/><path class="cls-2" d="M291.7,367.3a5.7,5.7,0,0,1-3.5,1.4H265.8c-1.1,0-1.3-.6-.5-1.3l8-6.9a5.6,5.6,0,0,1,3.5-1.3h22.1c1.1,0,1.3.6.5,1.3Z"/><path class="cls-2" d="M449.9,367.2a5.1,5.1,0,0,1-3.3,1.5H424.2c-1.1,0-1.4-.7-.6-1.5l6.3-6.6a5,5,0,0,1,3.3-1.4h22.1c1.1,0,1.4.6.6,1.4Z"/><path class="cls-2" d="M481.6,367.2a5.1,5.1,0,0,1-3.3,1.5H455.9c-1.1,0-1.4-.7-.7-1.5l6-6.6a5,5,0,0,1,3.3-1.4h22.1c1.1,0,1.4.6.7,1.5Z"/><path class="cls-2" d="M513.2,367.1a4.7,4.7,0,0,1-3.3,1.6H487.5c-1.1,0-1.4-.7-.6-1.5l5.6-6.5a4.6,4.6,0,0,1,3.3-1.5h22.1c1.1,0,1.4.6.7,1.5Z"/><path class="cls-2" d="M544.8,367.1a4.3,4.3,0,0,1-3.2,1.6H519.2c-1.1,0-1.4-.7-.7-1.6l5.3-6.4a4.6,4.6,0,0,1,3.3-1.5h22.1c1.1,0,1.4.7.7,1.5Z"/><path class="cls-2" d="M576.5,367.1a4.5,4.5,0,0,1-3.2,1.6H550.9c-1.1,0-1.5-.7-.8-1.6l5-6.4a5.1,5.1,0,0,1,3.3-1.5h22c1.1,0,1.5.7.8,1.6Z"/><path class="cls-2" d="M356.7,378.8a5.7,5.7,0,0,1-3.5,1.4H330.4c-1.1,0-1.3-.6-.5-1.4l7.4-7a5.7,5.7,0,0,1,3.5-1.4h22.4c1.1,0,1.4.7.6,1.4Z"/><path class="cls-2" d="M388.8,378.8a5.4,5.4,0,0,1-3.4,1.4H362.6c-1.1,0-1.4-.6-.6-1.4l7.1-7a6.1,6.1,0,0,1,3.4-1.4H395c1.1,0,1.3.7.6,1.5Z"/><path class="cls-2" d="M420.9,378.8a5.4,5.4,0,0,1-3.4,1.4H394.7c-1.1,0-1.3-.6-.6-1.4l6.8-6.9a5.3,5.3,0,0,1,3.4-1.5h22.4c1.1,0,1.4.7.6,1.5Z"/><path class="cls-2" d="M453,378.7a5,5,0,0,1-3.4,1.5H426.9c-1.1,0-1.4-.6-.7-1.4l6.4-6.9a5.6,5.6,0,0,1,3.4-1.5h22.4c1.1,0,1.4.7.7,1.5Z"/><path class="cls-2" d="M228.2,378.9a6.5,6.5,0,0,1-3.5,1.3H201.9c-1.1,0-1.3-.5-.5-1.2l8.8-7.3a6.9,6.9,0,0,1,3.6-1.3h22.4c1.1,0,1.4.6.5,1.3Z"/><path class="cls-2" d="M260.3,378.9a6.3,6.3,0,0,1-3.5,1.3H234c-1.1,0-1.3-.6-.5-1.3l8.5-7.2a6.3,6.3,0,0,1,3.5-1.3H268c1.1,0,1.3.6.5,1.3Z"/><path class="cls-2" d="M292.4,378.9a6.3,6.3,0,0,1-3.5,1.3H266.2c-1.1,0-1.4-.6-.5-1.3l8.1-7.2a6.3,6.3,0,0,1,3.5-1.3h22.4c1.1,0,1.4.6.6,1.4Z"/><path class="cls-2" d="M324.5,378.9a5.9,5.9,0,0,1-3.4,1.3H298.3c-1.1,0-1.3-.6-.5-1.3l7.7-7.1a5.9,5.9,0,0,1,3.5-1.4h22.5c1.1,0,1.3.6.5,1.4Z"/><path class="cls-2" d="M485.1,378.7a5.1,5.1,0,0,1-3.3,1.5H459c-1.1,0-1.4-.6-.7-1.5l6.1-6.8a5.1,5.1,0,0,1,3.3-1.5h22.5c1.1,0,1.4.7.7,1.5Z"/><path class="cls-2" d="M517.2,378.7a5.1,5.1,0,0,1-3.3,1.5H491.1c-1.1,0-1.4-.7-.7-1.5l5.8-6.8a5.1,5.1,0,0,1,3.3-1.5h22.4c1.1,0,1.5.7.8,1.6Z"/><path class="cls-2" d="M549.3,378.6a4.5,4.5,0,0,1-3.2,1.6H523.3c-1.1,0-1.4-.7-.8-1.5L528,372a4.5,4.5,0,0,1,3.2-1.6h22.5c1.1,0,1.4.7.8,1.6Z"/><path class="cls-2" d="M351.9,390.7a5.4,5.4,0,0,1-3.4,1.4H325.3c-1.1,0-1.3-.6-.5-1.4l7.6-7.3a6.4,6.4,0,0,1,3.5-1.4h22.8c1.1,0,1.4.7.6,1.4Z"/><path class="cls-2" d="M384.5,390.7a5.2,5.2,0,0,1-3.4,1.4H357.9c-1.1,0-1.3-.6-.5-1.4l7.3-7.3a5.8,5.8,0,0,1,3.4-1.4h22.8c1.1,0,1.4.7.6,1.5Z"/><path class="cls-2" d="M417.1,390.7a5.2,5.2,0,0,1-3.4,1.4H390.6c-1.1,0-1.4-.6-.6-1.4l6.9-7.2a5.6,5.6,0,0,1,3.4-1.5h22.8c1.1,0,1.4.7.7,1.5Z"/><path class="cls-2" d="M449.7,390.6a4.6,4.6,0,0,1-3.3,1.5H423.2c-1.1,0-1.4-.6-.7-1.4l6.6-7.2a5.6,5.6,0,0,1,3.4-1.5h22.8c1.1,0,1.4.7.7,1.5Z"/><path class="cls-2" d="M221.5,390.8a6.3,6.3,0,0,1-3.5,1.3H194.8c-1.1,0-1.3-.5-.4-1.3l9.1-7.5A6.3,6.3,0,0,1,207,382h22.8c1.1,0,1.4.6.5,1.3Z"/><path class="cls-2" d="M188.9,390.9a6.2,6.2,0,0,1-3.5,1.2H140.9c-1.1,0-1.3-.5-.4-1.2l9.7-7.6a6.9,6.9,0,0,1,3.6-1.3h43.8c1.1,0,1.3.6.5,1.3Z"/><path class="cls-2" d="M254.1,390.8a6.3,6.3,0,0,1-3.5,1.3H227.4c-1.1,0-1.3-.6-.4-1.3l8.7-7.5a6.3,6.3,0,0,1,3.5-1.3h22.9c1.1,0,1.3.6.5,1.4Z"/><path class="cls-2" d="M286.7,390.8a5.9,5.9,0,0,1-3.4,1.3H260.1c-1.1,0-1.4-.6-.5-1.3l8.3-7.4a5.9,5.9,0,0,1,3.5-1.4h22.9c1.1,0,1.3.6.5,1.4Z"/><path class="cls-2" d="M319.3,390.7a5.4,5.4,0,0,1-3.4,1.4H292.7c-1.1,0-1.3-.6-.5-1.3l8-7.4a5.4,5.4,0,0,1,3.4-1.4h22.9c1.1,0,1.3.7.5,1.4Z"/><path class="cls-2" d="M482.3,390.6a5.1,5.1,0,0,1-3.3,1.5H455.8c-1.1,0-1.4-.6-.7-1.5l6.3-7.1a5.1,5.1,0,0,1,3.3-1.5h22.9c1.1,0,1.4.7.7,1.6Z"/><path class="cls-2" d="M514.9,390.6a5.1,5.1,0,0,1-3.3,1.5H488.4c-1.1,0-1.4-.7-.7-1.5l5.9-7a4.9,4.9,0,0,1,3.3-1.6h22.9c1.1,0,1.4.7.7,1.6Z"/><path class="cls-2" d="M358.6,403a6.1,6.1,0,0,1-3.4,1.4H331.6c-1.1,0-1.4-.6-.6-1.4l7.8-7.6a5.4,5.4,0,0,1,3.4-1.4h23.2c1.1,0,1.4.6.6,1.4Z"/><path class="cls-2" d="M391.7,402.9a5.6,5.6,0,0,1-3.4,1.5H364.7c-1.1,0-1.4-.7-.6-1.4l7.4-7.6a5.4,5.4,0,0,1,3.4-1.4h23.2c1.1,0,1.4.6.7,1.4Z"/><path class="cls-2" d="M424.8,402.9a5.6,5.6,0,0,1-3.4,1.5H397.8c-1.1,0-1.4-.7-.6-1.5l7-7.5a5.4,5.4,0,0,1,3.4-1.4h23.2c1.1,0,1.4.7.7,1.5Z"/><path class="cls-2" d="M457.9,402.9a5.6,5.6,0,0,1-3.4,1.5H430.9c-1.1,0-1.4-.7-.6-1.5l6.7-7.4a5.1,5.1,0,0,1,3.3-1.5h23.2c1.1,0,1.5.7.7,1.5Z"/><path class="cls-2" d="M226.2,403.1a6.3,6.3,0,0,1-3.5,1.3H199.1c-1.1,0-1.3-.6-.5-1.3l9.3-7.8a6.3,6.3,0,0,1,3.5-1.3h23.2c1.1,0,1.4.6.5,1.3Z"/><path class="cls-2" d="M193.1,403.1a6.3,6.3,0,0,1-3.5,1.3H125.3c-1.1,0-1.3-.6-.4-1.2l10.1-8a6.7,6.7,0,0,1,3.6-1.2h63.3c1.1,0,1.4.6.5,1.3Z"/><path class="cls-2" d="M259.3,403.1a6.3,6.3,0,0,1-3.5,1.3H232.2c-1.1,0-1.3-.6-.5-1.3l8.9-7.8a6.3,6.3,0,0,1,3.5-1.3h23.2c1.1,0,1.4.6.6,1.3Z"/><path class="cls-2" d="M292.4,403a5.7,5.7,0,0,1-3.5,1.4H265.3c-1.1,0-1.3-.6-.5-1.4l8.5-7.7a6.3,6.3,0,0,1,3.5-1.3H300c1.1,0,1.4.6.6,1.4Z"/><path class="cls-2" d="M135.3,416.9a6.3,6.3,0,0,1-3.5,1.3H107.7c-1.1,0-1.3-.6-.4-1.2l12-9.5a7.7,7.7,0,0,1,3.6-1.2h23.6c1.1,0,1.3.6.5,1.3Z"/><path class="cls-2" d="M169,416.9a6.3,6.3,0,0,1-3.5,1.3H141.4c-1.1,0-1.3-.6-.4-1.3l11.5-9.3a6.9,6.9,0,0,1,3.6-1.3h23.6c1.1,0,1.3.6.5,1.3Z"/><path class="cls-2" d="M202.7,416.9a6.5,6.5,0,0,1-3.5,1.3H175.1c-1.1,0-1.3-.6-.5-1.3l11.1-9.3a6.9,6.9,0,0,1,3.6-1.3h23.6c1.1,0,1.4.6.5,1.3Z"/><path class="cls-2" d="M244,416.9a6.3,6.3,0,0,1-3.5,1.3H208.8c-1.1,0-1.4-.6-.5-1.3l10.7-9.3a6.3,6.3,0,0,1,3.5-1.3h31.2c1.1,0,1.3.6.5,1.3Z"/><path class="cls-2" d="M453.5,416.7a5.1,5.1,0,0,1-3.3,1.5H418.5c-1.1,0-1.4-.7-.6-1.5l8-8.9a5.1,5.1,0,0,1,3.3-1.5h31.2c1.1,0,1.4.7.7,1.5Z"/><path class="cls-2" d="M412.3,416.7a5.6,5.6,0,0,1-3.4,1.5H250.1c-1.1,0-1.3-.6-.5-1.3l10.1-9.2a5.7,5.7,0,0,1,3.5-1.4H419.7c1.1,0,1.4.7.6,1.5Z"/><path class="cls-2" d="M325.5,403a5.4,5.4,0,0,1-3.4,1.4H298.5c-1.1,0-1.4-.6-.6-1.4l8.1-7.6a5.7,5.7,0,0,1,3.5-1.4h23.2c1.1,0,1.4.6.6,1.4Z"/><path class="cls-2" d="M490.9,402.8a4.5,4.5,0,0,1-3.2,1.6H464.1c-1.1,0-1.5-.7-.7-1.5l6.3-7.4A5.1,5.1,0,0,1,473,394h23.2c1.1,0,1.5.7.8,1.5Z"/><path class="cls-2" d="M487.2,416.6a4.7,4.7,0,0,1-3.3,1.6h-24c-1.1,0-1.5-.7-.7-1.5l7.5-8.9a5.1,5.1,0,0,1,3.3-1.5h23.6c1.1,0,1.5.7.8,1.6Z"/><path class="cls-2" d="M524,402.8a4.5,4.5,0,0,1-3.2,1.6H497.2c-1.1,0-1.4-.7-.7-1.6l5.9-7.3a5.1,5.1,0,0,1,3.3-1.5h23.2c1.1,0,1.5.7.8,1.6Z"/><path class="cls-2" d="M596.7,402.7a3.9,3.9,0,0,1-3.1,1.7H530.3c-1.1,0-1.4-.7-.8-1.6l5.7-7.2a4.3,4.3,0,0,1,3.2-1.6h62.4c1.1,0,1.5.7.8,1.6Z"/><path class="cls-2" d="M547.5,390.5a4.7,4.7,0,0,1-3.3,1.6H521.1c-1.1,0-1.5-.7-.8-1.5l5.6-7a4.5,4.5,0,0,1,3.2-1.6H552c1.1,0,1.4.7.8,1.6Z"/><path class="cls-2" d="M605.2,390.5a4.1,4.1,0,0,1-3.1,1.6H553.7c-1.1,0-1.5-.7-.8-1.6l5.2-6.9a4.7,4.7,0,0,1,3.3-1.6h47.7c1.1,0,1.5.8.9,1.7Z"/><path class="cls-2" d="M581.4,378.6a4.5,4.5,0,0,1-3.2,1.6H555.4c-1.1,0-1.4-.7-.8-1.6l5.2-6.6a4.3,4.3,0,0,1,3.2-1.6h22.4c1.1,0,1.5.8.8,1.6Z"/><path class="cls-2" d="M613.5,378.6a4.1,4.1,0,0,1-3.1,1.6H587.6c-1.1,0-1.5-.7-.9-1.6l4.8-6.6a4.9,4.9,0,0,1,3.2-1.6h22.5c1.1,0,1.5.8.8,1.7Z"/><path class="cls-2" d="M621.5,367a4.2,4.2,0,0,1-3.1,1.7H582.6c-1.1,0-1.5-.8-.8-1.6l4.7-6.3a4.3,4.3,0,0,1,3.2-1.6H625c1.1,0,1.5.7.9,1.6Z"/><path class="cls-2" d="M196.1,379a6.7,6.7,0,0,1-3.6,1.2H156.1c-1.1,0-1.3-.5-.4-1.2l9.3-7.3a6.9,6.9,0,0,1,3.6-1.3h35.9c1.1,0,1.3.6.5,1.3Z"/><path class="cls-2" d="M187.3,354.2a6.9,6.9,0,0,1,3.6-1.3h22.8c1.1,0,1.3.6.4,1.3l-2.5,2a6.2,6.2,0,0,1-3.5,1.2h-23c-1.1,0-1.3-.5-.4-1.2Z"/><path class="cls-2" d="M219.3,354.2a6.3,6.3,0,0,1,3.5-1.3h22.8c1.1,0,1.4.6.5,1.3l-2.3,2a6.7,6.7,0,0,1-3.6,1.2H217.3c-1.1,0-1.3-.5-.5-1.2Z"/><path class="cls-2" d="M251.3,354.2a6.3,6.3,0,0,1,3.5-1.3h22.8c1.1,0,1.3.6.5,1.3l-2.2,1.9a5.6,5.6,0,0,1-3.5,1.3h-23c-1.1,0-1.3-.5-.4-1.2Z"/><path class="cls-2" d="M283.3,354.2a6.3,6.3,0,0,1,3.5-1.3h22.8c1.1,0,1.3.6.5,1.4l-2.1,1.8a5.9,5.9,0,0,1-3.4,1.3h-23c-1.1,0-1.3-.5-.5-1.3Z"/><path class="cls-2" d="M315.3,354.3a5.7,5.7,0,0,1,3.5-1.4h22.8c1.1,0,1.3.6.5,1.4l-1.9,1.8a6.3,6.3,0,0,1-3.5,1.3H313.8c-1.1,0-1.4-.6-.6-1.3Z"/><path class="cls-2" d="M347.3,354.3a6.1,6.1,0,0,1,3.4-1.4h22.8c1.1,0,1.4.7.6,1.4l-1.8,1.8a5.9,5.9,0,0,1-3.4,1.3h-23c-1.1,0-1.3-.6-.5-1.3Z"/><path class="cls-2" d="M379.3,354.3a6.1,6.1,0,0,1,3.4-1.4h22.8c1.1,0,1.4.7.6,1.5l-1.6,1.6a5.7,5.7,0,0,1-3.5,1.4H378.1c-1.1,0-1.4-.6-.6-1.3Z"/><path class="cls-2" d="M411.3,354.4a5.6,5.6,0,0,1,3.4-1.5h22.8c1.1,0,1.4.7.6,1.5l-1.5,1.6a5.4,5.4,0,0,1-3.4,1.4H410.3c-1.1,0-1.4-.6-.6-1.4Z"/><path class="cls-2" d="M443.3,354.4a5.3,5.3,0,0,1,3.4-1.5h22.8c1.1,0,1.4.7.6,1.5l-1.4,1.6a5,5,0,0,1-3.3,1.4h-23c-1.1,0-1.4-.6-.6-1.4Z"/><path class="cls-2" d="M475.3,354.4a5.1,5.1,0,0,1,3.3-1.5h22.8c1.1,0,1.4.7.7,1.5l-1.3,1.5a4.6,4.6,0,0,1-3.3,1.5H474.6c-1.1,0-1.4-.6-.7-1.4Z"/><path class="cls-2" d="M507.3,354.5a4.7,4.7,0,0,1,3.3-1.6h22.8c1.1,0,1.4.7.7,1.6l-1.1,1.4a4.6,4.6,0,0,1-3.3,1.5h-23c-1.1,0-1.4-.6-.7-1.5Z"/><path class="cls-2" d="M539.3,354.5a4.7,4.7,0,0,1,3.3-1.6h22.8c1.1,0,1.4.7.7,1.6l-1,1.4a4.8,4.8,0,0,1-3.2,1.5h-23c-1.1,0-1.4-.6-.7-1.5Z"/><path class="cls-2" d="M571.3,354.5a4.7,4.7,0,0,1,3.3-1.6h22.8c1.1,0,1.4.8.8,1.6l-1,1.3a4.3,4.3,0,0,1-3.2,1.6H571.1c-1.1,0-1.5-.7-.8-1.5Z"/><path class="cls-2" d="M603.3,354.5a4.9,4.9,0,0,1,3.2-1.6h22.8c1.1,0,1.5.8.9,1.7l-.9,1.2a4.1,4.1,0,0,1-3.1,1.6h-23c-1.1,0-1.4-.7-.8-1.6Z"/><path class="cls-2" d="M494.5,414.5a5.1,5.1,0,0,1,3.3-1.5h23.5c1.1,0,1.5.7.8,1.5l-1.6,2.1a4.5,4.5,0,0,1-3.2,1.6H493.5c-1.1,0-1.4-.7-.7-1.6Z"/><path class="cls-2" d="M556.5,413"/><path class="cls-2" d="M532.1,411.5c-1.1,0-1.5-.7-.8-1.6l1.5-2a4.5,4.5,0,0,1,3.2-1.6h23.4c1.1,0,1.4.7.8,1.6l-1.5,2a4.1,4.1,0,0,1-3.1,1.6Z"/><path class="cls-2" d="M560.9,414.6A4.1,4.1,0,0,1,564,413h23.6c1.1,0,1.5.7.9,1.6l-1.4,2a4.1,4.1,0,0,1-3.1,1.6H560.2c-1.1,0-1.4-.7-.8-1.6Z"/><path class="cls-2" d="M530.9,413a4.5,4.5,0,0,0-3.2,1.6l-1.6,2c-.7.9-.3,1.6.8,1.6h23.7a4.5,4.5,0,0,0,3.2-1.6l1.5-2c.6-.9.3-1.6-.8-1.6Z"/><path class="cls-8" d="M584.9,354.3"/></g></g><g id="Keyboard_prints" data-name="Keyboard prints"><g id="Keyboard_prints_copy_2" data-name="Keyboard prints copy 2"><g id="Perspective_Text" data-name="Perspective Text"><path class="cls-5" d="M221.7,376.5h-5.3l-.7-.3a.5.5,0,0,1-.3-.4.5.5,0,0,1,.4-.5l.8-.5,1.3-.5,1.4-.2h2.8a1.5,1.5,0,0,1,.8.2c.2.2.3.3.2.5a.9.9,0,0,1-.3.5l-.5.3-.7.3-.8.2-.9.2H222Zm-5.1-1.3a.5.5,0,0,0-.2.4c-.1.1,0,.2.1.3l.6.2h2.1l1.1-.2,1-.3.6-.4.3-.4c0-.2,0-.3-.2-.4l-.5-.2h-2.2l-1.1.2-.9.4Z"/></g><g id="Perspective_Text-2" data-name="Perspective Text"><path class="cls-5" d="M213.2,400.2l6.6-2.1h-4l.3-.3h5l-.3.2-6.5,2.2h4.1l-.3.2h-5.2Z"/></g><g id="Perspective_Text-3" data-name="Perspective Text"><path class="cls-5" d="M249.4,399l-.9-1.2h1.1l.7,1,3.1-1h1l-3.8,1.2,1,1.4h-1.1l-.7-1.1-3.5,1.1h-1Z"/></g><g id="Perspective_Text-4" data-name="Perspective Text"><path class="cls-5" d="M286.3,398.3l-.5-.2h-2.1l-1.1.2-1,.4-.6.4c-.2.2-.3.3-.3.4s0,.3.2.4a.8.8,0,0,0,.6.2h2.2a2.7,2.7,0,0,0,1.2-.3l.4.2-1.5.4h-3l-.8-.3a.5.5,0,0,1-.3-.4.7.7,0,0,1,.4-.6l.8-.5,1.3-.5,1.4-.3h2.9l.7.3Z"/></g><g id="Perspective_Text-5" data-name="Perspective Text"><path class="cls-5" d="M314.3,397.8h.9V400h0l4.6-2.2h.8l-5.5,2.6h-.8Z"/></g><g id="Perspective_Text-6" data-name="Perspective Text"><path class="cls-5" d="M348,397.8h3.6c.2.1.3.1.3.2s.1.2-.1.3-.4.3-.7.4l-1.1.2h.9c.1.1.2.2.2.3l-.2.2a1.5,1.5,0,0,1-.6.4l-.9.2h-4.1Zm-.3,1.1h2.8l.4-.2v-.2l-.2-.2h-2.3Zm-1.3,1.3h3.3c.1-.1.3-.1.3-.2s.2-.2.1-.2a.2.2,0,0,0-.2-.2h-2.5Z"/></g><g id="Perspective_Text-7" data-name="Perspective Text"><path class="cls-5" d="M380.1,397.8h1.1l1.9,2.2h0l2.2-2.2h.8l-2.6,2.6h-1l-2-2.2h0l-2.1,2.2h-.9Z"/></g><g id="Perspective_Text-8" data-name="Perspective Text"><path class="cls-5" d="M412.3,397.8h1.3l.4,2.1h.1l4.3-2.1h1.2l-2.4,2.6h-.9l2.1-2.2h0l-4.6,2.2h-.5l-.5-2.2h0l-2.1,2.2h-.8Z"/></g><g id="Perspective_Text-9" data-name="Perspective Text"><path class="cls-5" d="M213.8,385.6h.8v2.6h-1v-.6h-3.5l-1.5.6h-.9Zm-.1.4h0l-3,1.3h2.9Z"/></g><g id="Perspective_Text-10" data-name="Perspective Text"><path class="cls-5" d="M247.4,386.1c0-.1-.1-.2-.3-.2h-1.8l-.5.2-.4.2h-.1a.1.1,0,0,0,.1.1l.4.2h.6l.6.2h.5c.2,0,.2.1.3.2s-.1.2-.2.3l-.6.4-.9.2h-3.4c-.1-.1-.2-.1-.2-.2l1-.2c0,.1.1.2.3.2h2l.5-.2.4-.2v-.2h-2.3l-.2-.2c0-.1.1-.2.2-.3l.6-.3.8-.3h2.9l.6.3Z"/></g><g id="Perspective_Text-11" data-name="Perspective Text"><path class="cls-5" d="M276,385.6h4l.5.2.4.3s.1.2,0,.3a.5.5,0,0,1-.3.4l-.6.4-.8.4-.9.2-.9.2h-4.3Zm-1.8,2.3H277l1.1-.2.9-.3.7-.5c.2-.2.3-.3.3-.4a.5.5,0,0,0-.2-.4h-3.3Z"/></g><g id="Perspective_Text-12" data-name="Perspective Text"><path class="cls-5" d="M309.4,385.6h4.3l-.3.3h-3.5l-.9.9h3.2l-.3.2h-3.2l-1.3,1.2h-.8Z"/></g><g id="Perspective_Text-13" data-name="Perspective Text"><path class="cls-5" d="M344.1,388l-1.5.2h-2.8l-.9-.3a.5.5,0,0,1-.3-.4.9.9,0,0,1,.3-.6,1.9,1.9,0,0,1,.9-.5l1.2-.5,1.5-.3h2.8l.8.3-.8.2-.6-.2h-2.2l-1.1.2-1,.4-.6.4c-.2.2-.2.3-.2.4s0,.3.2.4l.7.2h2l.9-.2.9-.8h-1.6l.3-.2h2.4Z"/></g><g id="Perspective_Text-14" data-name="Perspective Text"><path class="cls-5" d="M373.3,385.6h.8l-1.1,1.1h3.7l1.1-1.1h.8l-2.5,2.6h-.8l1.1-1.2h-3.7l-1.2,1.2h-.8Z"/></g><g id="Perspective_Text-15" data-name="Perspective Text"><path class="cls-5" d="M408,387.5l-.4.3-.5.2-.8.2h-1l-1.1-.2c-.2-.1-.3-.2-.2-.4h.9c-.1.1,0,.1.1.2h1.7l.3-.2.3-.2,1.7-1.8h.8Z"/></g><g id="Perspective_Text-16" data-name="Perspective Text"><path class="cls-5" d="M438.2,385.6h.8l-1,1.1h.1l4.2-1.1h1.2l-4.5,1.2,2.3,1.4h-1.2l-2.1-1.3h-.1l-1.2,1.3h-.9Z"/></g><g id="Perspective_Text-17" data-name="Perspective Text"><path class="cls-5" d="M471.4,385.6h.9l-2,2.3h3.2l-.3.3h-4Z"/></g><g id="Perspective_Text-18" data-name="Perspective Text"><path class="cls-5" d="M506.8,383.9h.4c.1,0,.1,0,0,.1l-.3.2h-.8c-.1-.1-.1-.1,0-.2s.1-.1.3-.1Zm-1.1,1.3h.4c.1,0,.1.1,0,.1s-.1.2-.3.2H505c-.1,0-.1-.1-.1-.2h.8Z"/><path class="cls-5" d="M501.2,390.6h-.7l1.4-.9h.9Zm2-2.3h.4c0,.1.1.1,0,.2s-.1.1-.3.2h-.8c-.1-.1-.1-.1-.1-.2l.3-.2Z"/></g><g id="Perspective_Text-19" data-name="Perspective Text"><path class="cls-5" d="M453.2,395.7l-5,.8,3.7.7-.2.3-4.4-.9.2-.2,5.9-.9Z"/><path class="cls-5" d="M444.4,402.7h-.8l1.5-.9h.9Z"/></g><g id="Perspective_Text-20" data-name="Perspective Text"><path class="cls-5" d="M538.9,383.1h.7l-1.3.8h-.9Zm1.8,0h.7l-1.3.8h-.9Z"/><path class="cls-5" d="M536.4,387.4h.7l-1.4.9h-.8Z"/></g><g id="Perspective_Text-21" data-name="Perspective Text"><path class="cls-5" d="M584.4,389.8v-.2a.1.1,0,0,0,.1-.1h1.9l-.2.3H586l-.8.2a.5.5,0,0,0-.5.3l-.4.6h-.5Z"/><path class="cls-5" d="M589.1,390.5l-.8.2h-1.4l-.5-.2c-.1,0-.1-.1-.1-.2s0-.1,0-.2l.3-.3.5-.2h2.3c.1.1.2.1.2.2a.4.4,0,0,1-.1.3h-2.6c-.1.1-.1.1,0,.2h1.4l.5-.2Zm-.1-.5c.1-.1,0-.2-.1-.3h-1.4l-.5.3Z"/><path class="cls-5" d="M592.4,389.6h-.9l-.5.6v.2h0c0,.1,0,.1.1.1h.7v.2h-1.3c0-.1,0-.1.1-.2l.4-.7h.2l.2-.4h.5l-.2.4h.8Z"/><path class="cls-5" d="M595.4,390.4a.1.1,0,0,0-.1.1v.2h-2.5c-.1-.1-.1-.1-.1-.2v-.2l.5-.7h.5l-.5.7v.2h1.4l.3-.2h.2l.4-.6h.5Z"/><path class="cls-5" d="M596.8,389.8v-.2a.1.1,0,0,0,.1-.1h1.9l-.2.3h-.3l-.8.2a.5.5,0,0,0-.5.3l-.4.6h-.5Z"/><path class="cls-5" d="M599.3,389.8c0-.1,0-.2.1-.2h.6c-.1,0-.1,0-.1.1H602v.2l-.6.8h-.5l.5-.7c.1-.2.1-.2,0-.3h-1.6c-.1.1-.2.1-.2.2l-.4.6h-.6Z"/></g><g id="Perspective_Text-22" data-name="Perspective Text"><path class="cls-5" d="M580.9,402.7h1.6a.1.1,0,0,0-.1-.1H581l.3-.2h2.2l-.6.2c0-.1-.1-.1-.2-.2h-1c-.1,0-.1,0-.1.1H583a.1.1,0,0,1,.1.1h0c-.1.1-.1.2-.3.2h-2l-.4-.2Z"/><path class="cls-5" d="M585,401h.6l-.7.9h1.7l.4.2h.1c0,.1,0,.1-.1.2l-.5.8h-.6l.5-.8c.1-.1.1-.1,0-.2s-.2-.1-.5-.1h-.8l-.3.2-.2.2-.5.6h-.5Z"/><path class="cls-5" d="M588.6,401.3l.2-.2h.6c.1.1.1.1,0,.2h-.8Zm-.2.4h.6l-.9,1.3h-.6Z"/><path class="cls-5" d="M590.2,401.9h-.7v-.2h.7l.2-.2.2-.2.3-.2h1.5l-.2.2h-1c0,.1-.1.1-.1.2a.1.1,0,0,0-.1.1l-.2.2h.8v.2h-.8L590,403h-.5Z"/><path class="cls-5" d="M593.9,401.9H593l-.5.6v.2h0c0,.1,0,.1.1.1h.7v.2h-1.3c-.1,0-.1-.1,0-.1v-.2l.5-.7h-.7v-.2h.7l.3-.3h.5l-.2.3h1Z"/></g><g id="Perspective_Text-23" data-name="Perspective Text"><path class="cls-5" d="M602.3,367.1h0l-.6.2h-1.8c-.1-.1-.2-.1-.2-.2a.4.4,0,0,1,.1-.3l.3-.2.4-.2h2.3l.7-.8h.5l-1.3,1.8h-.6Zm.2-.4h.1c0-.1-.1-.1-.1-.2h-1.7l-.3.2h-.2v.2c0,.1,0,.1.1.1H602c.2,0,.3,0,.3-.1A.2.2,0,0,0,602.5,366.7Z"/><path class="cls-5" d="M606.6,367.1l-.8.2H604l-.2-.2a.4.4,0,0,1,.1-.3l.2-.2.5-.2h2.3a.3.3,0,0,1,.1.2v.2h-2.6c-.1,0-.1.1,0,.1s0,.1.1.2h2.1Zm-.1-.5c0-.1,0-.1-.1-.2H605l-.5.2Z"/><path class="cls-5" d="M608.7,365.5h.5l-1.3,1.8h-.5Z"/><path class="cls-5" d="M611.9,367.1l-.7.2h-1.9c-.1-.1-.1-.2-.2-.2a.4.4,0,0,1,.1-.3l.3-.2.5-.2h2.2l.2.2c0,.1,0,.1-.1.2h-2.6c0,.1.1.1.1.2h2.1Zm-.1-.5c.1-.1,0-.1-.1-.2h-1.4l-.5.2Z"/><path class="cls-5" d="M615.1,366.3h-.9l-.4.6a.1.1,0,0,0-.1.1h.8v.2h-1c-.1,0-.2,0-.2-.1h0l.5-.7h.1l.2-.4h.5l-.2.4h.8Z"/><path class="cls-5" d="M618,367.1l-.7.2h-1.9l-.2-.2a.4.4,0,0,1,.1-.3l.3-.2.4-.2h2.3c.1,0,.1.1.1.2s0,.1,0,.2h-2.6c0,.1.1.1.1.2H618Zm-.1-.5c0-.1,0-.1-.1-.2h-1.4l-.5.2Z"/></g><g id="Perspective_Text-24" data-name="Perspective Text"><path class="cls-5" d="M129.1,402.7h1.7a.1.1,0,0,0-.1-.1h-1.1c-.1,0-.1,0-.1-.1h.1l.3-.2h2.2l-.6.2c0-.1-.1-.1-.1-.2h-.1l-.3.2h-2.1l-.4-.2Z"/><path class="cls-5" d="M134.2,401h.5l-1.1.9h1.8l.2.2a.1.1,0,0,1,.1.1l-.2.2-1,.8H134l.9-.8c.1-.1.2-.1.1-.2s-.2-.1-.4-.1h-1l-.3.2-.3.2-.8.6h-.6Z"/><path class="cls-5" d="M137.7,401.3c0-.1.1-.1.2-.2h.6v.2h-.8Zm-.5.4h.5l-1.6,1.3h-.5Z"/><path class="cls-5" d="M138.9,401.9h-.8l.3-.2h.7l.3-.2.3-.2.4-.2h1.5l-.3.2h-1c0,.1-.1.1-.2.2h-.2l-.3.2h.8l-.2.2h-.8l-1.3,1.1h-.6Z"/><path class="cls-5" d="M142.6,401.9h-1l-.8.6c0,.1-.1.1-.1.2h-.1a.1.1,0,0,0,.1.1h.8l-.2.2H140l.2-.2.9-.7h-.8l.3-.2h.7l.4-.3h.6l-.5.3h1Z"/></g><g id="Perspective_Text-25" data-name="Perspective Text"><path class="cls-5" d="M147.7,389.8c0-.1-.1-.1-.2-.1h-1.8l-.3.2h-.1v.2h1.9l-.8.2h-1.3l-.4-.2c-.1,0-.1-.1-.1-.2l.2-.2.5-.3.6-.2h2.4Z"/><path class="cls-5" d="M148.9,389.6h1.5a1.4,1.4,0,0,1,.9.2c.1,0,0,.2-.2.3l-.6.6h-.6l-.6.2h-1.5a.1.1,0,1,1,0-.2c.1-.2.3-.2.5-.3h2.3c.2-.1.2-.2.1-.2h-1.6Zm.9.5h-1.4c-.1.1-.1.2,0,.2h1.4Z"/><path class="cls-5" d="M152.7,389.5h2.7c.1.1.1.1.1.2l-.2.3-.4.2-.6.2-.7.2H152l-1.1.8h-.5Zm-.2.6a.2.2,0,0,0-.2.2h2.1l.3-.2c.1-.1.2-.1.2-.2h-.1c0-.1-.1-.1-.2-.1h-1.8C152.6,390,152.5,390,152.5,390.1Z"/><path class="cls-5" d="M155.9,390.4h1.6a.1.1,0,0,0-.1-.1h-1.1c-.1,0-.1,0-.1-.1h.1l.3-.2h1.9c.2,0,.3.1.3.2h-.6c0-.1-.1-.1-.2-.1h-.2c.1,0,.2,0,.2.1h.1a.1.1,0,0,1-.1.1l-.3.2h-2.1c-.2-.1-.3-.1-.3-.2Z"/><path class="cls-5" d="M162.8,388.7h.5l-2.5,2h-.5Z"/><path class="cls-5" d="M162.5,390.1l.4-.3.7-.2H166c.1.1.1.1.1.2s0,.2-.2.3l-.4.2-.6.2-.7.2h-1.4l-.4-.2c-.1,0-.1-.1-.1-.2Zm.6,0a.2.2,0,0,0-.2.2h2.2l.3-.2c0-.1.1-.1.1-.2h-.1c0-.1-.1-.1-.2-.1h-1.8C163.2,390,163.1,390,163.1,390.1Z"/><path class="cls-5" d="M169.4,389.8c0-.1-.1-.1-.2-.1h-1.7c-.2.1-.3.1-.3.2H167c0,.1,0,.2.1.2h1.8l-.7.2h-1.4l-.3-.2c-.1,0-.1-.1-.1-.2l.2-.2.4-.3.6-.2h2.5Z"/><path class="cls-5" d="M171.8,388.7h.5l-1.6,1.3,2.2-.5h.7l-2.2.5.9.7h-.8l-.8-.7-.8.7h-.5Z"/></g><g id="Perspective_Text-26" data-name="Perspective Text"><path class="cls-5" d="M162.5,377.7h-1l-.7.6h.6l-.2.2H160c-.1-.1-.1-.1,0-.2h.2l.8-.7h.2l.4-.4h.5l-.4.4h.8Z"/><path class="cls-5" d="M163.1,377.7h1.5a1.3,1.3,0,0,1,.8.2c.1,0,.1.2-.1.3l-.7.5c0,.1,0,.1-.1.1h-2.6c0-.1.1-.1.1-.2l.5-.2h2.3v-.2h-1.8Zm.9.5h-.8l-.6.2c-.1.1-.1.1,0,.2h1.6l.3-.2H164Z"/><path class="cls-5" d="M167.7,376.8h.6l-1.2.9h2.4v.2a.2.2,0,0,1-.2.2l-.4.3-.6.2h-2l-.3-.2h0l-.2.2h-.6Zm-1.1,1.3a.3.3,0,0,0-.1.2c-.1.1,0,.1,0,.2h1.7l.4-.2.3-.2h.1c0-.1,0-.1-.1-.2h-1.6l-.4.2Z"/></g><g id="Perspective_Text-27" data-name="Perspective Text"><path class="cls-5" d="M112.8,415.7h-.7l.2-.2h.8l.3-.3a.5.5,0,0,1,.4-.2l.4-.2h1.5l-.4.2h-1.4l-.3.3h.8l-.2.2h-.8l-1.4,1.1h-.6Z"/><path class="cls-5" d="M114.6,415.8l.2-.2h2.7v.2l-.2.2-1,.8h-.6l1-.8c.1-.1.2-.2.1-.3H115l-.3.2-.8.7h-.5Z"/></g><g id="Perspective_Text-28" data-name="Perspective Text"><path class="cls-5" d="M147.4,415.8h-2.1l-.3.2a.3.3,0,0,0-.1.2v.2h.7a1.8,1.8,0,0,0,1-.2l.2.2-.7.2h-1.4l-.4-.2c-.1,0-.1-.1-.1-.2l.2-.3.5-.2.6-.3h2.1a.5.5,0,0,1,.4.2Z"/><path class="cls-5" d="M147.9,416.1a.5.5,0,0,1,.4-.2l.7-.3h2.5a.4.4,0,0,1,.1.3l-.2.2-.5.3-.6.2-.7.2h-1.4l-.4-.2a.2.2,0,0,1-.2-.2C147.7,416.3,147.7,416.2,147.9,416.1Zm.6,0-.2.2v.2h1.7l.4-.2.3-.2c.1,0,.1-.1.2-.2h-.1c0-.1-.1-.1-.2-.1h-1.9Z"/><path class="cls-5" d="M152.7,415.8l.2-.2h2.6c.1,0,.1.1.1.2l-.2.2-1,.8h-.6l1-.8c.1-.1.2-.2.1-.3h-1.8l-.3.2-.8.7h-.5Z"/><path class="cls-5" d="M158.6,415.7h-1l-.7.6h.6l-.2.2H156c.1-.1.1-.2.2-.2l.9-.7h-.7l.2-.2h.7l.5-.4h.5l-.4.4h.9Z"/><path class="cls-5" d="M159.2,415.8c0-.1.1-.1.1-.2h2.1l-.3.2h-1.2l-.6.3-.8.7H158Z"/><path class="cls-5" d="M160.9,416.1l.5-.2.6-.3h2.6a.4.4,0,0,1,.1.3l-.2.2-.5.3-.6.2-.7.2h-1.5l-.3-.2a.2.2,0,0,1-.2-.2Zm.6,0v.4h1.8l.4-.2.3-.2c.1,0,.1-.1.1-.2s0-.1,0-.1h-2.2Z"/><path class="cls-5" d="M167.1,414.7h.6l-2.5,2.1h-.6Z"/></g><g id="Perspective_Text-29" data-name="Perspective Text"><path class="cls-5" d="M177.9,416.1l.5-.2.6-.3h2.6v.3l-.2.2-.5.3-.6.2-.7.2h-1.5l-.4-.2a.3.3,0,0,1-.1-.2Zm.6,0a.3.3,0,0,0-.1.2v.2h1.8l.4-.2.3-.2c.1,0,.1-.1.1-.2h-2.2Z"/><path class="cls-5" d="M183.1,415.5h.5l-.2.2h0l.8-.2h1.7a.4.4,0,0,1,.1.3s0,.1-.2.2l-.4.3-.6.2-.7.2h-1.4c-.2,0-.3-.1-.3-.2h0l-1,.9h-.6Zm-.2.6-.2.2v.2h1.7l.4-.2c.2,0,.3-.1.3-.2a.2.2,0,0,0,.2-.2h-.1c0-.1-.1-.1-.2-.1h-1.9Z"/><path class="cls-5" d="M189.1,415.7h-1l-.8.6h-.1a.1.1,0,0,1-.1.1h.9l-.2.2h-1.3c.1-.1.1-.2.2-.2l.8-.7h-.7l.2-.2h.8l.4-.4h.5l-.4.4h1Z"/><path class="cls-5" d="M190.5,415c0-.1.1-.1.2-.1h.6c.1,0,.1,0,0,.1h-.8C190.4,415.1,190.4,415,190.5,415Zm-.5.5h.6l-1.5,1.3h-.6Z"/><path class="cls-5" d="M190.7,416.1l.5-.2.6-.3h2.6a.4.4,0,0,1,.1.3l-.2.2-.5.3-.6.2-.7.2h-1.4l-.4-.2a.2.2,0,0,1-.2-.2Zm.6,0v.4H193l.4-.2.3-.2c.1,0,.1-.1.1-.2s0-.1,0-.1h-2.2Z"/><path class="cls-5" d="M195.6,415.8c0-.1.1-.1.1-.2h2.7v.2l-.2.2-.9.8h-.5l.9-.8a.4.4,0,0,0,.1-.3H196l-.3.2-.7.7h-.6Z"/></g><g id="Perspective_Text-30" data-name="Perspective Text"><path class="cls-5" d="M187.4,408.2h2c0,.1,0,.2-.2.3l-.5.5h-.5a.1.1,0,0,1,.1-.1h-1.7l.4-.2h1.9c0-.1.1-.1,0-.2h-1.5Zm.8.4h-.7l-.4.2c-.1,0-.1.1,0,.1h1.1Z"/><path class="cls-5" d="M191.3,407.4h.4l-1.9,1.6h-.4Z"/><path class="cls-5" d="M193.1,408.2h-.8l-.6.5h-.6c0-.1.1-.1.1-.2l.7-.5h-.6l.2-.2h.6l.3-.2h.4l-.3.2h.8Z"/></g><g id="Perspective_Text-31" data-name="Perspective Text"><path class="cls-5" d="M464.8,416.2l.4-.3.5-.2h2.6v.2c.1.1,0,.2-.1.3s-.2.2-.3.3l-.6.2h-2.5c-.1-.1-.2-.1-.2-.2A.4.4,0,0,1,464.8,416.2Zm.6,0v.2c0,.1,0,.1.1.1h2.1c.1-.1.2-.1.2-.2s.1-.1.1-.2a.1.1,0,0,0-.1-.1h-2.1Z"/><path class="cls-5" d="M469.7,415.6h2.9l.2.2a.4.4,0,0,1-.1.3l-.4.3-.5.2h-2.1l-.3-.2h0l-.7.9h-.6Zm0,.6v.2c0,.1,0,.1.1.1s.1.1.3.1h1.8l.2-.2c.1-.1.1-.1.1-.2H470Z"/><path class="cls-5" d="M475.8,415.7h-1l-.5.7a497582161916,497582161916,0,0,0-.2.2h.9v.2h-1.4v-.2a.1.1,0,0,0,.1-.1l.6-.8h.2l.3-.4h.5l-.3.4h.9Z"/><path class="cls-5" d="M477,415.1c0-.1.1-.1.2-.2h.5c.1.1.1.1.1.2H477C476.9,415.1,476.9,415.1,477,415.1Zm-.3.5h.5l-1,1.3h-.6Z"/><path class="cls-5" d="M477.6,416.2l.4-.3.5-.2h2.6l.2.2c0,.1-.1.2-.1.3l-.4.3-.5.2h-2.6c-.1-.1-.2-.1-.2-.2A.4.4,0,0,1,477.6,416.2Zm.6,0v.2a.1.1,0,0,0,.1.1h2.1l.3-.2V416a.1.1,0,0,0-.1-.1h-2.1Z"/><path class="cls-5" d="M482.3,415.9c.1-.1.1-.1.1-.2h.6a.1.1,0,0,0-.1.1h2.3c0,.1-.1.2-.1.3l-.7.8h-.6l.7-.8a.2.2,0,0,0,0-.3h-1.7l-.2.2-.5.7h-.6Z"/></g><g id="Perspective_Text-32" data-name="Perspective Text"><path class="cls-5" d="M509.1,416.1l-3.6-.5,4.5-.6Z"/></g><g id="Perspective_Text-33" data-name="Perspective Text"><path class="cls-5" d="M573.1,415l3.6.6-4.4.5Z"/></g><g id="Perspective_Text-34" data-name="Perspective Text"><path class="cls-5" d="M544.8,408.7l2.6-1.5.4,1.5Z"/></g><g id="Perspective_Text-35" data-name="Perspective Text"><path class="cls-5" d="M542.5,415.7l-2.6,1.5-.4-1.5Z"/></g><g id="Perspective_Text-36" data-name="Perspective Text"><path class="cls-5" d="M485.7,408.2h1.9a.2.2,0,0,1,0,.3l-.4.4c0,.1,0,.1-.1.1h-2a.1.1,0,0,0-.1-.1v-.2h.4l.5-.2h1.3c0-.1,0-.2-.1-.2h-1.3Zm.9.4h-1.1v.2h1Z"/><path class="cls-5" d="M489.2,407.5h.4l-1.3,1.6h-.4Z"/><path class="cls-5" d="M491.3,408.3h-.8l-.4.5h-.5v-.2h.1l.4-.5h-.5v-.2h.5l.3-.3h.4l-.2.3h.7Z"/></g><g id="Perspective_Text-37" data-name="Perspective Text"><path class="cls-5" d="M248,408.6l-.2.2-.5.2h-1.2c-.1-.1-.1-.2,0-.2l.5-.3h1.2l.3-.3h-.9c-.1,0-.1-.1,0-.2l.5-.2h1.2c.1,0,.1.1,0,.2l-.2.2h.8l.2-.2.5-.2h1.2c.1,0,.1.1,0,.2l-.5.2h-1.2l-.3.3h.9a.2.2,0,0,1,0,.3l-.5.2h-1.2c-.1-.1-.1-.2,0-.2l.2-.2Zm.3-.6.2-.2c.1-.1.1-.1,0-.1h-.9c-.1,0-.1.1,0,.1s.1.1.3.1Zm-.7.6h-.8l-.3.2h.9Zm.6-.2h.8l.3-.3h-.8Zm1.7-.4H251c.1-.1.1-.1,0-.1h-.9Zm-.7.6-.2.2h.9c.1-.1.1-.1,0-.2h-.7Z"/></g><g id="Perspective_Text-38" data-name="Perspective Text"><path class="cls-5" d="M214.2,415.8h-2l-.3.2-.2.2v.2h.6a2,2,0,0,0,1.1-.2l.2.2-.7.2h-1.4l-.4-.2c-.1,0-.1-.1-.1-.2l.2-.3a.5.5,0,0,1,.4-.2l.6-.3h2.1l.4.2Z"/><path class="cls-5" d="M214.7,416.1l.5-.2.6-.3h2.5c.1.1.2.2.1.3a.3.3,0,0,1-.1.2l-.5.3-.6.2-.7.2h-1.4l-.5-.2a.3.3,0,0,1-.1-.2Zm.6,0a.3.3,0,0,0-.1.2v.2H217l.4-.2.3-.2a.3.3,0,0,0,.1-.2h-.1c0-.1-.1-.1-.2-.1h-1.9Z"/><path class="cls-5" d="M219.5,415.8l.2-.2h.7a.1.1,0,0,0-.1.1h1.9a.1.1,0,0,0,.1.1h0l.6-.2h1.6v.2l-.2.2-.9.8h-.5l.8-.8a.1.1,0,0,0,.1-.1c.1-.1.1-.1,0-.1s0-.1-.1-.1H222l-.8.8h-.6l.9-.8c.1-.1.2-.2.2-.3H220l-.3.2-.8.7h-.5Z"/><path class="cls-5" d="M225.6,415.8l.2-.2h.6a.1.1,0,0,1-.1.1h2c0,.1,0,.1.1.1h0l.6-.2h1.3c.1,0,.2,0,.2.1s.1.1.1.2l-.2.2-.9.8h-.6l.9-.8a.1.1,0,0,0,.1-.1h0a.1.1,0,0,0-.1-.1h-1.7l-.8.8h-.6l.8-.8c.2-.1.3-.2.2-.3H226l-.3.2-.7.7h-.5Z"/><path class="cls-5" d="M231.8,415.6h2.4c.2.1.1.2-.1.4l-.6.6h-.1c-.1,0-.1,0-.1.1h-2.6c-.1-.1,0-.1,0-.2l.5-.2.7-.2h1.7c.1-.1.1-.1,0-.2H232Zm1,.6h-.9l-.5.2c-.1.1-.1.1,0,.2H233l.3-.2h-.5Z"/><path class="cls-5" d="M235.4,415.8c0-.1.1-.1.1-.2h2.7v.2l-.2.2-.8.8h-.6l.9-.8a.4.4,0,0,0,.1-.3h-1.8l-.3.2-.7.7h-.6Z"/><path class="cls-5" d="M241.2,416.5h0l-.7.2h-1.4l-.4-.2c-.1,0-.1-.1-.1-.2a.4.4,0,0,1,.1-.3l.5-.2.6-.3h2.1l.3.2h0l1.1-1h.6l-2.4,2.1H241Zm.5-.4c.1,0,.1-.1.1-.2h-2.2l-.3.2v.4H241l.4-.2Z"/></g><g id="Perspective_Text-39" data-name="Perspective Text"><path class="cls-5" d="M429.9,408.6v.2l-.5.2h-1.2c-.1-.1-.1-.2,0-.2s.2-.2.4-.3h1.1l.3-.3H429c-.2,0-.2-.1-.1-.2a.6.6,0,0,1,.5-.2h1.2c.1,0,.1.1,0,.2v.2h.8v-.2a.6.6,0,0,1,.5-.2h1.2c.1,0,.1.1,0,.2l-.4.2h-1.2l-.2.3h.9a.4.4,0,0,1,.1.3l-.5.2h-1.2c-.1-.1-.1-.2,0-.2v-.2Zm.2-.6v-.2c.1-.1,0-.1,0-.1h-.1Zm-.6.6h-.8c-.1.1-.2.1-.2.2s-.1,0,0,.1h.9Zm.5-.2h.8l.3-.3h-.8Zm1.7-.4h1c.1-.1.1-.1,0-.1h-.9Zm-.6.6v.2c-.1,0-.1,0,0,.1h.9c0-.1,0-.1-.1-.2h-.7Z"/></g><g id="Perspective_Text-40" data-name="Perspective Text"><path class="cls-5" d="M423.4,415.9h-2l-.3.2c0,.1-.1.1-.1.2h.8l1-.2.3.2h-2.5c-.1-.1-.2-.1-.2-.2a.4.4,0,0,1,.1-.3l.4-.3.5-.2H424Z"/><path class="cls-5" d="M424,416.2l.3-.3.6-.2h2.6v.2c.1.1,0,.2-.1.3l-.4.3-.5.2H424c-.1-.1-.1-.1-.1-.2S423.9,416.3,424,416.2Zm.6,0v.2c0,.1,0,.1.1.1s.1.1.3.1h1.8c.1-.1.2-.1.2-.2s.1-.1.1-.2a.1.1,0,0,0-.1-.1h-2.1Z"/><path class="cls-5" d="M428.7,415.9c0-.1.1-.1.1-.2h.6a.1.1,0,0,0-.1.1h2.2l.6-.2h1.5a.1.1,0,0,1,.1.1l-.2.3-.7.8h-.5l.7-.8v-.2c.1,0,0,0,0-.1h-1.2l-.3.2c-.1,0-.2,0-.2.1l-.7.8h-.5l.6-.8c.1-.1.2-.2.1-.3h-1.6l-.3.2-.5.7h-.6Z"/><path class="cls-5" d="M434.8,415.9c0-.1.1-.1.1-.2h.5c0-.1.1-.1.2-.1h1.9l.6-.2h1.6s.1.1,0,.1a.4.4,0,0,1-.1.3l-.7.8h-.5l.6-.8c.1-.1.1-.1.1-.2h-1.3l-.3.2h-.2l-.6.8h-.6l.7-.8a.4.4,0,0,0,.1-.3h-1.7l-.2.2-.5.7h-.6Z"/><path class="cls-5" d="M440.9,415.7h1.5a2.2,2.2,0,0,1,1,.2c.1.1.1.2-.1.4l-.5.5h0v.2H440v-.2l.4-.3h2.3c.1-.1.1-.2,0-.2h-1.7Zm1.2.5h-.9a.6.6,0,0,0-.5.2c-.1.1,0,.1.1.2h1.6c0-.1.1-.1.2-.2h-.5Z"/><path class="cls-5" d="M444.5,415.9l.2-.2h2.6a.1.1,0,0,1,.1.1c0,.1-.1.2-.1.3l-.7.8H446l.7-.8a.2.2,0,0,0,0-.3H445l-.2.2-.6.7h-.5Z"/><path class="cls-5" d="M450.6,416.6h0l-.7.2h-1.8c-.1-.1-.2-.1-.2-.2a.4.4,0,0,1,.1-.3l.4-.3.5-.2h2.5l.8-.9h.6l-1.8,2.1h-.6Zm.4-.4c0-.1.1-.1.1-.2h-2.2l-.3.2v.2a.1.1,0,0,0,.1.1h2.1Z"/></g><g id="Perspective_Text-41" data-name="Perspective Text"><path class="cls-5" d="M597.2,384.3h-2V384l.3-.2h2.1v.2h-.3Zm-.1-.4c.1-.1.1-.1,0-.2h-1l-.4.2Z"/><path class="cls-5" d="M598.3,383.8h1.8c.1.1.1.1.1.2h0l-.4.5h-.4l.4-.5v-.2h-1.2a.1.1,0,0,0-.1.1l-.3.4h-.4Z"/><path class="cls-5" d="M602.3,383.7h-.7l-.3.4h0c-.1,0-.1,0,0,.1h-.5a.1.1,0,0,1,.1-.1l.3-.5h.1l.2-.3h.4l-.2.3h.6Z"/><path class="cls-5" d="M604.4,384.3h-1.9a.1.1,0,0,1-.1-.1c-.1-.1,0-.1,0-.2l.2-.2h2a.1.1,0,0,1,.1.1v.2h-1.8c0,.1.1.1.2.1h1.3Zm-.1-.4c.1-.1,0-.1-.1-.2h-1l-.3.2Z"/><path class="cls-5" d="M605.4,383.8a.1.1,0,0,1,.1-.1h.5a.5.5,0,0,0-.4.2l-.3.4H605Z"/></g><g id="Perspective_Text-42" data-name="Perspective Text"><path class="cls-5" d="M591.1,356.2h.1v.2H591l-.2.3h-.2Z"/><path class="cls-5" d="M592.6,356.9h-.2l.3-.6h-.4l.5-.2h.2Z"/><path class="cls-5" d="M593.2,356.8l.8-.3h.2c.1,0,.1,0,.1-.1h-.2l-.7.2h-.2Z"/></g><g id="Perspective_Text-43" data-name="Perspective Text"><path class="cls-5" d="M559.4,356.2h.1v.2h-.1l-.2.3h-.2Z"/><path class="cls-5" d="M560.8,356.9h-.2l.4-.6h-.4l.5-.2h.2Z"/><path class="cls-5" d="M562.2,356.9H562l.4-.6h-.5l.6-.2h.1Z"/></g><g id="Perspective_Text-44" data-name="Perspective Text"><path class="cls-5" d="M527.4,356.2h.2l-.2.2h-.1l-.2.3h-.2Z"/><path class="cls-5" d="M528.9,356.9h-.2l.4-.6h-.5l.6-.2h.2Z"/><path class="cls-5" d="M529.7,356.5h1.2a.1.1,0,0,1-.1.1c0,.1-.1.1-.1.2h-1.1Zm.2,0c0,.1,0,.1-.1.1h.8c.1,0,.1,0,.1-.1H530a.1.1,0,0,1-.1.1Z"/></g><g id="Perspective_Text-45" data-name="Perspective Text"><path class="cls-5" d="M496.8,356.2h.1l-.2.2h0l-.2.3h-.2Z"/><path class="cls-5" d="M498.4,356.6h.2l-.6.3h-.3Zm-.1,0a.1.1,0,0,0,.1-.1h-.1Z"/></g><g id="Perspective_Text-46" data-name="Perspective Text"><path class="cls-5" d="M464.2,356.2h.2l-.2.2h-.1l-.2.3h-.2Z"/><path class="cls-5" d="M465.4,356.4h.9a.1.1,0,0,1-.1.1H465c0-.1,0-.1.1-.1h.3Zm-.1.3h.5a.1.1,0,0,1,.1-.1h-.6Zm.3-.3h.4a.1.1,0,0,0,.1-.1c.1,0,.1-.1,0-.1h-.5Z"/></g><g id="Perspective_Text-47" data-name="Perspective Text"><path class="cls-5" d="M432.1,356.2h.1l-.2.2h0l-.3.3h-.2Z"/><path class="cls-5" d="M434.3,356.3l-1.2.6h-.2l1.1-.6h.3Z"/></g><g id="Perspective_Text-48" data-name="Perspective Text"><path class="cls-5" d="M399.9,356.2h.1l-.2.2h-.1l-.2.3h-.2Z"/><path class="cls-5" d="M401.2,356.5H401l.7-.3h.2Zm.1,0a.1.1,0,0,0-.1.1h.2a.1.1,0,0,1,.1-.1h-.2Z"/></g><g id="Perspective_Text-49" data-name="Perspective Text"><path class="cls-5" d="M367.8,356.2h.1l-.2.2h-.1l-.2.3h-.2Z"/><path class="cls-5" d="M369.9,356.3h-.7v.2h.5a.1.1,0,0,1,.1.1h-1a.1.1,0,0,0,.1.1h.6c0-.1,0-.1-.1-.1h-.5l.3-.4h.8Z"/></g><g id="Perspective_Text-50" data-name="Perspective Text"><path class="cls-5" d="M335.7,356.2h.1l-.2.2h-.1l-.3.2H335Z"/><path class="cls-5" d="M337.4,356.6h-.9l1-.4h.3Zm.1-.3h0l-.9.3h.6Z"/></g><g id="Perspective_Text-51" data-name="Perspective Text"><path class="cls-5" d="M303.6,356.2h.1l-.2.2h-.1l-.3.3h-.2Z"/><path class="cls-5" d="M304.9,356.5h.5a.1.1,0,0,1,.1-.1h-.1a.1.1,0,0,0-.1.1h-.9c-.1,0-.1,0-.1-.1h.7a.1.1,0,0,0,.1-.1h-.2Z"/></g><g id="Perspective_Text-52" data-name="Perspective Text"><path class="cls-5" d="M271.8,356.2h.2l-.3.2h0l-.4.2h-.1Z"/><path class="cls-5" d="M272.5,356.8l.9-.3h.2a.1.1,0,0,0,.1-.1h-.5c.1,0,.2,0,.2-.1h.6c-.1,0-.1,0-.1.1h-.5l-.7.2h-.2Z"/></g><g id="Perspective_Text-53" data-name="Perspective Text"><path class="cls-5" d="M239.6,356.2h.1l-.2.2h-.1l-.3.2h-.2Z"/><path class="cls-5" d="M240.8,356.8h-.2l.6-.5h-.4l.6-.2h.2Z"/></g><g id="Perspective_Text-54" data-name="Perspective Text"><path class="cls-5" d="M248,373.9h.9L248,376h0l4.2-2.1h.9l-.8,2.1h0l4-2.1h.9l-4.9,2.6h-.9l.8-2.2h-.1l-4.1,2.2h-.9Z"/></g><g id="Perspective_Text-55" data-name="Perspective Text"><path class="cls-5" d="M282.5,373.9h4.3l-.3.3H283l-.9.8h3.2l-.3.3h-3.2l-1,.9h3.6l-.3.3h-4.5Z"/></g><g id="Perspective_Text-56" data-name="Perspective Text"><path class="cls-5" d="M314,373.9h3.5l.4.3c.1,0,0,.2-.1.3l-1,.5-1.5.2.7,1.2h-1l-.6-1.2h-1.1l-1.2,1.2h-.8Zm-.4,1.1h2.8l.5-.3c.1-.1.1-.1.1-.2h-2.5Z"/></g><g id="Perspective_Text-57" data-name="Perspective Text"><path class="cls-5" d="M350.4,374.2h-2.3l-2.3,2.3H345l2.3-2.3h-2.2l.2-.3h5.4Z"/></g><g id="Perspective_Text-58" data-name="Perspective Text"><path class="cls-5" d="M378.1,375.4l-1.2-1.5H378l.8,1.2,3.1-1.2h1l-4,1.5-1.1,1.1H377Z"/></g><g id="Perspective_Text-59" data-name="Perspective Text"><path class="cls-5" d="M413.1,375.5l-.5.4-.8.3-1,.2h-2.4l-.6-.2a.4.4,0,0,1-.1-.3l.2-.4,1.5-1.6h.9l-1.5,1.6-.2.2a.4.4,0,0,0,.1.3c0,.1.1.1.3.2h1.7l.7-.2.6-.3.3-.2,1.5-1.6h.8Z"/></g><g id="Perspective_Text-60" data-name="Perspective Text"><path class="cls-5" d="M443.5,373.9h.8l-2.3,2.6h-.8Z"/></g><g id="Perspective_Text-61" data-name="Perspective Text"><path class="cls-5" d="M473.5,376.5h-1.3a1.2,1.2,0,0,1-.9-.3c-.2-.1-.4-.2-.4-.4a.6.6,0,0,1,.2-.5,1.8,1.8,0,0,1,.7-.5l1.2-.5,1.3-.2h2.9l.9.2.4.5a1.7,1.7,0,0,1-.2.5,1.6,1.6,0,0,1-.8.5l-1.1.4a2.8,2.8,0,0,1-1.3.3Zm.3-.3h1.1l1.1-.3.9-.3.5-.4.2-.4c-.1-.1-.1-.3-.3-.3l-.7-.3h-2.2l-1,.3-.9.3a1,1,0,0,0-.5.4.8.8,0,0,0-.2.4q0,.1.3.3l.7.3Z"/></g><g id="Perspective_Text-62" data-name="Perspective Text"><path class="cls-5" d="M505.7,373.9h3.5l.4.2c.1.1,0,.2-.1.3a1,1,0,0,1-.5.4l-.7.2h-3l-.9,1.2h-.8Zm-.1,1.1H508a.6.6,0,0,0,.6-.3c.2-.1.1-.2-.1-.3h-2.3Z"/></g><g id="Perspective_Text-63" data-name="Perspective Text"><path class="cls-5" d="M542.3,371.8h-1.2l-.5.7-.3.2h-.5v.2a.3.3,0,0,1-.1.2l-.4.6a.1.1,0,0,0-.1.1h.8v.2h-1.3c-.1-.1-.1-.1-.1-.2s0-.1,0-.2l.5-.6a.1.1,0,0,0,.1-.1c0-.1-.1-.1-.1-.2h-.5l.2-.2h.9l.2-.2.5-.6.3-.2h1.8Z"/><path class="cls-5" d="M538.3,376h-.9l-2.2,2.8h.9l-.2.2h-1.6l2.6-3.2h1.6Z"/></g><g id="Perspective_Text-64" data-name="Perspective Text"><path class="cls-5" d="M571.8,371.5H573c.1,0,.2,0,.2.1v.2l-.4.6c-.1.1-.1.1-.1.2h.6l-.2.2h-.6l-.3.2h-.2l-.5.6a.2.2,0,0,1-.2.2l-.3.2h-1.5l.2-.2h.8a.1.1,0,0,1,.1-.1h.3l.4-.6.3-.2.3-.2h.2a.1.1,0,0,1-.1-.1v-.2l.5-.7a.1.1,0,0,0,.1-.1h-.9Z"/><path class="cls-5" d="M569.2,375.8h1.6l-2.4,3.2h-1.6l.2-.2h.9l2-2.8H569Z"/></g><g id="Perspective_Text-65" data-name="Perspective Text"><path class="cls-5" d="M192.4,362.1h0Z"/><path class="cls-5" d="M186.7,365.5H186l-.7-.5h1Z"/></g><g id="Perspective_Text-66" data-name="Perspective Text"><path class="cls-5" d="M197.5,355.5l-.9.2h-1.7a.3.3,0,0,1-.1-.2l.2-.3.4-.2.6-.2h2.2c0,.1.1.1,0,.2s-.1.1-.2.2h-2.5a.1.1,0,0,0-.1.1h.1c0,.1.1.1.2.1h1.8Zm.1-.5c.1-.1.1-.1,0-.2h-1.3l-.6.2Z"/><path class="cls-5" d="M198.6,355.4H200c0-.1-.1-.1-.2-.1h-.9l.3-.2H201c.2,0,.3.1.3.2h-.6c0,.1,0,.1-.1.2h-2.3l-.3-.2Z"/><path class="cls-5" d="M204.2,354.9h-1.6l-.3.2H202c-.1.1-.1.1-.1.2h.6l1-.2h.2l-.7.2h-1.6a.3.3,0,0,1-.1-.2l.2-.3.4-.2.5-.2h2.4Z"/></g><g id="Perspective_Text-67" data-name="Perspective Text"><path class="cls-5" d="M221.5,362.5h.3v.2h-1.2l.4-.2Zm.7-.3h-.8l2.1-1.8h.8Z"/><path class="cls-5" d="M216.7,367h-.8l2.5-2h0l-1.7.3-.2-.2,2.5-.5h.7Z"/></g><g id="Perspective_Text-68" data-name="Perspective Text"><path class="cls-5" d="M254.5,362h-.2c-.1.1-.1.1.1.1h1.2l.6-.3.4-.3c.2-.1.2-.2.2-.3s-.1-.2-.2-.3l-.6-.2h-2.2l-1.2.3-1,.3c-.3.2-.6.3-.7.5a.5.5,0,0,0-.3.4l.2.3.7.3H254a3.2,3.2,0,0,0,1.4-.3h.6l-.9.3-.9.2H251l-.8-.2c-.2-.2-.3-.3-.3-.4a.5.5,0,0,1,.3-.5,1.9,1.9,0,0,1,.9-.5l1.2-.5,1.5-.2h2.6a1.5,1.5,0,0,1,.8.2q.3.2.3.3a.8.8,0,0,1-.2.4l-.7.4a1.7,1.7,0,0,1-1,.3l-.9.2h-1.2c-.1-.1-.1-.1,0-.2h0l-.7.2h-1.5v-.2c0-.1,0-.1.1-.2l.6-.4.8-.3,1-.2h1.5c.2,0,.2.1.2.2h0l.5-.2h.6Zm-2.5-.1c-.1.1-.1.1,0,.2h1.2l.6-.2.6-.2.4-.2v-.2h-1.2l-.7.2-.6.2Z"/><path class="cls-5" d="M245.5,366.7l3.6-.9.6-.2h.8l.3-.2c0-.1.1-.1.1-.2H249l-.7.3h-.9l.6-.2.7-.2h2.8l.2.2c.1.1,0,.2-.1.3l-.4.3-.6.2-.6.2h-.7l-3,.8h3.5l-.3.2h-4.4Z"/></g><g id="Perspective_Text-69" data-name="Perspective Text"><path class="cls-5" d="M283,362.1h-.9l.2-.2h1.1l.8-.5h-1l.3-.2h1l1.1-.8h.7l-1.2.8h1.2l1.1-.8h.7l-1.1.8h.9l-.2.2h-1.1l-.8.5h1l-.3.2h-1l-1.1.8h-.7l1.2-.8h-1.2l-1.2.8h-.6Zm3-.7h-1.2l-.8.5h1.2Z"/><path class="cls-5" d="M279.8,365.6h1.9l.4-.2a.2.2,0,0,0,0-.3h-1.6l-.7.2h-.6l1.1-.4h2.5l.2.2c.1.1,0,.2-.1.3l-.7.3-1.1.2h.5c.1.1.2.1.2.2a.1.1,0,0,1,.1.1.4.4,0,0,1-.1.3l-.6.3-.7.2h-3c-.3-.1-.4-.3-.4-.4h.9a.2.2,0,0,0,.2.2h1.9l.5-.2.3-.2c.1,0,.2-.1.1-.2h-1.5Z"/></g><g id="Perspective_Text-70" data-name="Perspective Text"><path class="cls-5" d="M314.8,362.9h-1.1a.8.8,0,0,1-.6-.2l.9-.2.4.2h.7l.9-.8h-.6l-.4-.2a.2.2,0,0,1-.2-.2.3.3,0,0,1,.1-.2l.5-.3.6-.2h1.6l.2-.2h.5l-.3.2h.9l.6.2-.8.2-.4-.2h-.6l-.9.8h1.1l.3.2c0,.1-.1.2-.2.3l-.5.3-.6.2-.8.2h-.8l-.3.3h-.5Zm2.5-2.2h-.9l-.6.3h-.1c0,.1,0,.1.1.1h.6Zm-1.8,1.9h1l.6-.3h.1c0-.1,0-.1-.1-.1h-.6Z"/><path class="cls-5" d="M312.8,366.2h.9l-.3.3h-.9l-.7.5H311l.7-.5h-2.9l.3-.4,4.4-1.5h1Zm.6-1.3h-.1l-3.5,1.3H312Z"/></g><g id="Perspective_Text-71" data-name="Perspective Text"><path class="cls-5" d="M345.1,361l.4-.2.5-.2.7-.2H348l.4.2c.1,0,.1.1.2.2l-.2.2-.3.2-.6.2-.7.2h-1.3l-.4-.2c-.1,0-.1-.1-.1-.2Zm.7,0a.1.1,0,0,0-.1.1h2.1v-.2h-1.4l-.3.2C345.9,360.9,345.8,360.9,345.8,361Zm5.5-.7h.4l-6.9,2.6h-.4Zm-3.7,2a.5.5,0,0,1,.4-.2l.5-.2h2.4c.1,0,.1.1.1.2v.2a.5.5,0,0,1-.4.2l-.5.2-.7.2H348l-.4-.2c-.1,0-.1-.1-.1-.2A.3.3,0,0,1,347.6,362.3Zm.7,0h-.1c0,.1.1.1.1.2h1.4l.3-.2h.2a.1.1,0,0,0,.1-.1h-2Z"/><path class="cls-5" d="M346.5,364.8h-2.7l-.8.7h1.8l.5.2.2.2c0,.1-.1.2-.2.4l-.6.3-.7.3h-3c-.3-.1-.4-.2-.4-.4h.9a.2.2,0,0,0,.2.2h1.9l.5-.2.4-.2a.4.4,0,0,0,.1-.3l-.2-.2h-1.8l-.8.2,1.5-1.3h3.5Z"/></g><g id="Perspective_Text-72" data-name="Perspective Text"><path class="cls-5" d="M380.3,360.4h.6l.6,1.5h-.7l-.5-1.2-2.9,1.2h-.7Z"/><path class="cls-5" d="M374.7,365.6h2.2c.1.1.2.2.2.3a.4.4,0,0,1-.1.3l-.5.3-.8.3h-3.2l-.2-.3c-.1-.1,0-.2.1-.3s.3-.3.6-.4l.8-.3,2.8-1h.9Zm.5.2H374l-.4.2-.4.2a.3.3,0,0,0-.1.2c0,.1.1.1.2.2h2l.5-.2c.2,0,.3-.1.3-.2l.2-.2-.2-.2h-.9Z"/></g><g id="Perspective_Text-73" data-name="Perspective Text"><path class="cls-5" d="M411.2,362.5l-1.1.3h-2l-.6-.2a.2.2,0,0,1-.2-.2c-.1-.1,0-.2.1-.3l.3-.2.5-.2.7-.2h.7l-.4-.2a.8.8,0,0,1,.1-.4l.4-.2.5-.2h2.4l.2.2c0,.1,0,.1-.1.2s-.2.2-.3.2l-.5.2h-.6l-.6.2.9.5,1.4-.5h.9l-2,.7,1,.6h-1.1Zm-1.3-.8h-1.4l-.3.2v.2h2.4l.4-.2Zm.5-.3h1.3c.1-.1.2-.1.2-.2s.1-.1,0-.2h-1.3l-.5.3a.1.1,0,0,0-.1.1c.1.1.2.1.2.2Z"/><path class="cls-5" d="M409.6,364.8l-4.8,2.2h-.9l4.8-2.2h-3.2l.2-.2h4.2Z"/></g><g id="Perspective_Text-74" data-name="Perspective Text"><path class="cls-5" d="M443.1,360.9h1.5v.2h-1.5l.5.5H443l-.5-.4-1.2.4H441l1.2-.5H441l.3-.2h1.2l.5-.5h.6Z"/><path class="cls-5" d="M437,365.2l.4-.3.5-.2h2.8l.2.2a.4.4,0,0,1-.1.3h-.2l-.4.2H440a.3.3,0,0,0,.1.2l-.2.3-.4.3-.7.2h-3l-.3-.2a.4.4,0,0,1,.1-.3l.3-.3.5-.2h.5v-.2A.1.1,0,0,1,437,365.2Zm-.6,1.1v.2c0,.1,0,.1.1.2h1.9l.5-.2.3-.2a.1.1,0,0,0,0-.2.1.1,0,0,0-.1-.1h-2.4Zm1.3-1.1c-.1.1,0,.2.1.3h1.6l.6-.3a.2.2,0,0,0,0-.3h-1.7Z"/></g><g id="Perspective_Text-75" data-name="Perspective Text"><path class="cls-5" d="M472.6,363.4a.9.9,0,0,1-.4-.7.9.9,0,0,1,.4-.8,2.4,2.4,0,0,1,1.1-.8,5.9,5.9,0,0,1,1.6-.7h.4l-1.5.6-1,.8a.5.5,0,0,0-.2.4.5.5,0,0,0,0,.6.5.5,0,0,0,.2.4Z"/><path class="cls-5" d="M470.4,366h-2.3l-.2-.3a.4.4,0,0,1,.1-.3l.5-.3.7-.3h3.2q.3.2.3.3a.4.4,0,0,1-.1.3l-.3.2c0,.1-.1.1-.2.2h-.4l-.4.2-2.7,1h-1Zm-.6-.2H471l.5-.2.3-.2c0-.1.1-.1,0-.2s0-.1-.1-.2h-2.1l-.5.2-.3.2c0,.1-.1.2,0,.2s0,.1.1.2h.9Z"/></g><g id="Perspective_Text-76" data-name="Perspective Text"><path class="cls-5" d="M505.5,360.4a1,1,0,0,1,.4.7,1.3,1.3,0,0,1-.3.8l-1.1.8-1.6.7h-.4l1.4-.7,1-.7c.1-.2.2-.3.2-.4a.4.4,0,0,0,.1-.3c0-.2-.1-.3-.1-.4l-.3-.3Z"/><path class="cls-5" d="M499.1,365.8l.5-.4.7-.4a1.7,1.7,0,0,1,1-.3l1.2-.2a2.2,2.2,0,0,1,1,.2.5.5,0,0,1,.5.3v.4l-.3.4-.5.4c-.1.2-.4.3-.7.5l-.9.3h-2.3l-.5-.3v-.5Zm.8,0c0,.1-.1.1-.1.2v.2a.4.4,0,0,0-.1.3h.1l.3.2h1.2l.5-.2h.4l.4-.3c.1,0,.1-.1.2-.2l.2-.2.2-.2c0-.1,0-.1.1-.2v-.2c0-.1,0-.2-.1-.2l-.3-.2h-1.1l-.6.2-.4.2-.3.2-.3.2Z"/></g><g id="Perspective_Text-77" data-name="Perspective Text"><path class="cls-5" d="M565.2,361.7h2.2l.6-.8h.6l-.6.8h2.2l-.2.2h-2.2l-.6.8h-.6l.6-.8H565Z"/><path class="cls-5" d="M562.2,365.6h5l-.2.2h-5Zm-.4.5h5l-.2.3h-5Z"/></g><g id="Perspective_Text-78" data-name="Perspective Text"><path class="cls-5" d="M533,362.6h0Z"/><path class="cls-5" d="M531.8,365.5h2.3l-.2.3h-2.3Z"/></g><g id="Perspective_Text-79" data-name="Perspective Text"><path class="cls-5" d="M605.7,371.5l-2.6,3.5h-.6l2.5-3.5Z"/><path class="cls-5" d="M600.5,375.8h.7l.9,2.8h-.6Z"/></g><g id="Perspective_Text-80" data-name="Perspective Text"><path class="cls-5" d="M479.6,397.2l5-.7-3.8-.8.2-.2,4.5.9-.2.2-5.9.9Z"/><path class="cls-5" d="M478.4,401.7h.3c.1,0,.1.1.1.2h-1.2c-.1,0-.1-.1,0-.1s.1-.2.3-.2Z"/></g><g id="Perspective_Text-81" data-name="Perspective Text"><path class="cls-5" d="M514.5,397.2c.1-.1.1-.2.2-.2h.5l.4-.2h1.1l.2-.2a.2.2,0,0,0,0-.3h-1.6l-.7.3h-.8l.4-.3.7-.2h2.7c.2.1.3.1.3.2a.4.4,0,0,1-.1.3c-.1.1-.1.2-.3.2l-.4.2-.5.2h-1.3l-.2.2h-.8Zm0,.5h.3c.1,0,.1.1.1.2h-1.2s-.1-.1,0-.1.1-.2.3-.2Z"/><path class="cls-5" d="M509.3,402.9h-.6l5.4-2.9h.5Z"/></g><path class="cls-5" d="M154.4,383.7a3.5,3.5,0,0,1-1.3.3c-.4,0-.7-.2-.4-.3a2.2,2.2,0,0,1,1.3-.4C154.4,383.3,154.6,383.5,154.4,383.7Z"/><path class="cls-8" d="M615.5,354.7l-.8.4c-.3.5.5.9,1.7.9s2.5-.4,2.8-.9.1-.3-.1-.4"/><path class="cls-9" d="M615.5,354.7"/><path class="cls-9" d="M619.1,354.7"/><path class="cls-8" d="M584.6,354.8c.2.1.3.3.2.4a.9.9,0,0,1-.6.3"/><path class="cls-8" d="M585.6,356.1a2.9,2.9,0,0,0,1.6-.9q.4-.6-.3-.9"/><path class="cls-8" d="M585.8,354.6c.3.1.4.3.2.6a1.9,1.9,0,0,1-1.1.6"/><polygon class="cls-5" points="584.1 354.7 582.9 354.9 582 354.9 581.6 355.4 582.5 355.4 583.3 355.7 584.1 354.7"/><path class="cls-8" d="M554,354.8c.2.1.3.3.2.4l-.6.3"/><polygon class="cls-5" points="553.5 354.7 552.3 354.9 551.4 354.9 551 355.4 551.9 355.4 552.7 355.7 553.5 354.7"/><polygon class="cls-5" points="521.5 354.7 520.3 354.9 519.3 354.9 518.9 355.4 519.9 355.4 520.6 355.7 521.5 354.7"/><polygon class="cls-5" points="487.9 355.2 485.9 354.7 484.9 355.7 487.9 355.2"/><polygon class="cls-5" points="456.2 355.2 454.1 354.7 453.1 355.7 456.2 355.2"/><polygon class="cls-5" points="490.6 355.2 488.5 354.7 487.6 355.7 490.6 355.2"/><polygon class="cls-5" points="424 355.2 427.1 354.7 426 355.7 424 355.2"/><polygon class="cls-5" points="421.3 355.2 424.4 354.7 423.3 355.7 421.3 355.2"/><line class="cls-8" x1="458.4" y1="354.7" x2="457.4" y2="355.7"/><line class="cls-8" x1="460.3" y1="354.7" x2="459.3" y2="355.7"/><line class="cls-8" x1="389.8" y1="355.6" x2="393" y2="355.6"/><polygon class="cls-10" points="390.3 355 390 354.7 390.3 355 390.3 355"/><polygon class="cls-10" points="394.3 355.6 394.3 355.6 395.4 355.4 394.3 355.6"/><polygon class="cls-10" points="393.8 355 394.6 354.7 393.8 355 393.8 355"/><polygon class="cls-10" points="388.6 355.6 387.8 355.4 388.6 355.6 388.6 355.6"/><polygon class="cls-10" points="392.2 354.8 392.2 354.8 392.6 354.5 392.2 354.8 392.2 354.8"/><line class="cls-8" x1="357.3" y1="355.6" x2="360.5" y2="355.6"/><polygon class="cls-10" points="357.7 355 357.5 354.7 357.7 355 357.7 355"/><polygon class="cls-10" points="361.8 355.5 361.8 355.5 362.8 355.4 361.8 355.5"/><polygon class="cls-10" points="361.3 355 362.1 354.7 361.2 355 361.3 355"/><polygon class="cls-10" points="356.1 355.5 355.3 355.4 356.1 355.5 356.1 355.5"/><polygon class="cls-10" points="359.7 354.8 359.7 354.8 360.1 354.4 359.7 354.8 359.7 354.8"/><polygon class="cls-8" points="325.5 354.9 323.4 354.9 324.2 354.2 326.3 354.2 325.5 354.9"/><polygon class="cls-8" points="324.2 356.1 322.1 356.1 322.9 355.4 325 355.4 324.2 356.1"/><polygon class="cls-8" points="327.5 356.1 325.4 356.1 326.2 355.4 328.3 355.4 327.5 356.1"/><polygon class="cls-8" points="328.8 354.9 326.7 354.9 327.5 354.2 329.6 354.2 328.8 354.9"/><polygon class="cls-8" points="330.9 356.1 328.9 356.1 329.7 355.4 331.7 355.4 330.9 356.1"/><polygon class="cls-8" points="332.2 354.9 330.1 354.9 330.9 354.2 333 354.2 332.2 354.9"/><polygon class="cls-8" points="299.5 355.8 296.9 355.8 298.5 354.3 301.1 354.3 299.5 355.8"/><polygon class="cls-8" points="296 354.1 295 355 290 355 291 354.1 296 354.1"/><polygon class="cls-8" points="295.9 355.5 295.3 356.1 291.3 356.1 291.9 355.5 295.9 355.5"/><path class="cls-8" d="M264.8,355.1a3.1,3.1,0,0,1-1.9.5c-.7,0-1-.2-.7-.5a4,4,0,0,1,1.8-.4C264.8,354.7,265.1,354.9,264.8,355.1Z"/><path class="cls-11" d="M267,355.1h-1"/><path class="cls-8" d="M263.5,355.1"/><path class="cls-11" d="M261,355.1h-1"/><path class="cls-11" d="M265,353.9l-.5.4"/><path class="cls-8" d="M263.5,355.1"/><path class="cls-11" d="M262.5,356l-.5.4"/><path class="cls-11" d="M267,354.3l-.9.2"/><path class="cls-8" d="M263.5,355.1"/><path class="cls-11" d="M260.9,355.8l-.9.2"/><path class="cls-8" d="M261.5,355.6"/><path class="cls-8" d="M263.5,355.1"/><path class="cls-8" d="M265.5,354.6"/><path class="cls-11" d="M264.9,356l-.3-.2"/><path class="cls-8" d="M263.5,355.1"/><path class="cls-11" d="M262.4,354.5l-.3-.3"/><path class="cls-8" d="M232.7,355.1a3.1,3.1,0,0,1-1.9.5c-.7,0-1-.2-.7-.5a4.5,4.5,0,0,1,1.9-.4C232.7,354.7,233,354.9,232.7,355.1Z"/><path class="cls-11" d="M234.4,355.1h-.5"/><path class="cls-8" d="M231.4,355.1"/><path class="cls-11" d="M229,355.1h-.6"/><path class="cls-11" d="M232.7,354.1l-.2.2"/><path class="cls-8" d="M231.4,355.1"/><path class="cls-11" d="M230.3,356v.2"/><path class="cls-11" d="M234.5,354.4H234"/><path class="cls-8" d="M231.4,355.1"/><path class="cls-11" d="M228.8,355.8h-.5"/><path class="cls-8" d="M229.4,355.6"/><path class="cls-8" d="M231.4,355.1"/><path class="cls-8" d="M233.4,354.6"/><path class="cls-11" d="M232.7,355.9h-.2"/><path class="cls-8" d="M231.4,355.1"/><path class="cls-11" d="M230.4,354.5l-.2-.2"/><line class="cls-8" x1="616.9" y1="355.2" x2="617.6" y2="354.3"/></g></g></g><g id="Hinge"><polygon class="cls-12" points="644 341.5 192.1 341.5 199.4 335.5 648 335.5 644 341.5"/><polygon class="cls-13" points="644 341.5 197.1 341.5 201.3 329.2 648.8 329.2 646.8 337.3 644 341.5"/><polygon class="cls-12" points="648 335.5 648.8 329.2 646.8 337.3 648 335.5"/></g><g id="Code"><rect id="Top_Bar" data-name="Top Bar" class="cls-14" x="183.8" y="14.2" width="485" height="303.19"/><rect id="Left_Panel" data-name="Left Panel" class="cls-12" x="183.8" y="23.3" width="485" height="294.07" rx="3"/><path id="Right_Panel" data-name="Right Panel" class="cls-2" d="M273.1,23.3H665.8a3,3,0,0,1,3,3V314.3a3,3,0,0,1-3,3H273.1a0,0,0,0,1,0,0V23.3A0,0,0,0,1,273.1,23.3Z"/><g id="Top_Bar_Menu" data-name="Top Bar Menu"><path id="Apple" class="cls-15" d="M196.7,18.5a1,1,0,0,1,.6-1.1,1.1,1.1,0,0,0-1.1-.6,3.9,3.9,0,0,0-1.1.3l-1-.3a1.5,1.5,0,0,0-1.5,1.7,2.2,2.2,0,0,0,.2,1.1c.1.5.7,1.6,1.3,1.6l1-.2,1,.2c.7,0,1.2-1,1.4-1.5a1.2,1.2,0,0,1-.8-1.2Zm-.8-2.2a1,1,0,0,0,.3-.9,1.4,1.4,0,0,0-.9.5,1.2,1.2,0,0,0-.3.9A1.1,1.1,0,0,0,195.9,16.3Z"/><text class="cls-16" transform="translate(206.2 20.5)">Code</text><text class="cls-17" transform="translate(229.8 20.6)">File</text><text class="cls-17" transform="translate(247.7 20.6)">Edit</text><text class="cls-17" transform="translate(265.1 20.6)">Selection</text><text class="cls-17" transform="translate(294.4 20.6)"><tspan class="cls-18">V</tspan><tspan x="3.1" y="0">iew</tspan></text><text class="cls-17" transform="translate(314.2 20.6)">Go</text><text class="cls-17" transform="translate(329.3 20.6)">Run</text><text class="cls-17" transform="translate(346.9 20.6)"><tspan class="cls-19">T</tspan><tspan x="2.2" y="0">erminal</tspan></text><text class="cls-17" transform="translate(373.8 20.6)">Window</text><text class="cls-17" transform="translate(398.5 20.6)">P<tspan class="cls-20" x="2.9" y="0">r</tspan><tspan x="4.3" y="0">o</tspan></text></g><path class="cls-21" d="M186.8,23.3h479a3,3,0,0,1,3,3v5.5a0,0,0,0,1,0,0h-485a0,0,0,0,1,0,0V26.3A3,3,0,0,1,186.8,23.3Z"/><g id="Close_Buttons" data-name="Close Buttons"><circle class="cls-22" cx="189.3" cy="27.5" r="2"/><circle class="cls-23" cx="197.6" cy="27.5" r="2"/><circle class="cls-24" cx="206" cy="27.5" r="2"/></g><text class="cls-25" transform="translate(402.5 29.2)">ind<tspan class="cls-26" x="5.8" y="0">e</tspan><tspan class="cls-27" x="8" y="0">x.html  port</tspan><tspan class="cls-28" x="33.6" y="0">f</tspan><tspan x="34.8" y="0">olio</tspan></text><g id="Error_Bar" data-name="Error Bar"><path id="Error_Bar-2" data-name="Error Bar" class="cls-29" d="M183.8,308.8h485a0,0,0,0,1,0,0v5.5a3,3,0,0,1-3,3h-479a3,3,0,0,1-3-3v-5.5a0,0,0,0,1,0,0Z"/><g id="Circle_Error" data-name="Circle Error"><circle class="cls-30" cx="191.3" cy="313.1" r="2"/><line class="cls-31" x1="190.3" y1="314.1" x2="192.3" y2="312.1"/><line class="cls-31" x1="192.3" y1="314.1" x2="190.3" y2="312.1"/><text class="cls-32" transform="translate(195.7 314.5)">0</text></g><g id="Triangle_Error" data-name="Triangle Error"><text class="cls-32" transform="translate(207 314.5)">0</text><polygon class="cls-30" points="202.5 311.3 203.6 313.2 204.7 315.1 202.5 315.1 200.3 315.1 201.4 313.2 202.5 311.3"/><line class="cls-30" x1="202.5" y1="312.7" x2="202.5" y2="313.9"/><line class="cls-30" x1="202.5" y1="314.2" x2="202.5" y2="314.4"/></g></g><g id="Menu_Bar" data-name="Menu Bar"><rect id="Menu" class="cls-33" x="183.8" y="31.8" width="16.3" height="277.04"/><g id="Settings"><path class="cls-4" d="M195.8,301.4l-.6-.3a1.1,1.1,0,0,0,0-.8l.6-.4c.1,0,.2-.2.2-.4a4,4,0,0,0-1-1.7.3.3,0,0,0-.5-.1l-.6.3-.7-.4V297c0-.2-.1-.4-.3-.4a3.4,3.4,0,0,0-2,0c-.2,0-.3.2-.3.4v.6l-.7.4-.6-.3c-.2-.1-.4-.1-.5.1a4,4,0,0,0-1,1.7c0,.2,0,.4.2.4l.6.4a1.1,1.1,0,0,0,0,.8l-.6.3c-.2.1-.2.3-.2.5a5.9,5.9,0,0,0,1,1.7.4.4,0,0,0,.5.1l.6-.3.7.4v.6c0,.2.1.4.3.4a3.4,3.4,0,0,0,2,0c.2,0,.3-.2.3-.4v-.6l.7-.4.6.3c.1.1.4,0,.5-.1a5.9,5.9,0,0,0,1-1.7.8.8,0,0,0-.2-.5Zm-1.1,1.8-.8-.5a3.3,3.3,0,0,1-1.3.7v.9h-1.5v-.9a3.7,3.7,0,0,1-1.2-.7l-.8.5a4.2,4.2,0,0,1-.7-1.3l.8-.5a3.3,3.3,0,0,1,0-1.4l-.8-.5a3.3,3.3,0,0,1,.7-1.3l.8.5a3.7,3.7,0,0,1,1.2-.7v-.9a3.8,3.8,0,0,1,1.5,0v.9a3.3,3.3,0,0,1,1.3.7l.8-.5a3.3,3.3,0,0,1,.7,1.3l-.8.5a3.3,3.3,0,0,1,0,1.4l.8.5a4.2,4.2,0,0,1-.7,1.3Zm-2.8-4.2a1.8,1.8,0,0,0-1.7,1.7,1.7,1.7,0,0,0,1.7,1.6,1.6,1.6,0,0,0,1.6-1.6A1.7,1.7,0,0,0,191.9,299Zm0,2.8a1.1,1.1,0,1,1,1.1-1.1A1.1,1.1,0,0,1,191.9,301.8Z"/></g><g id="Accounts"><circle class="cls-34" cx="191.9" cy="284.4" r="4.3"/><circle class="cls-34" cx="191.9" cy="283.2" r="1.8"/><path class="cls-34" d="M189.1,287.6a2.8,2.8,0,0,1,5.6,0"/></g><g id="Extensions"><path class="cls-34" d="M188,101.9h2.8a.5.5,0,0,1,.5.5v3.3a0,0,0,0,1,0,0H188a.5.5,0,0,1-.5-.5v-2.8A.5.5,0,0,1,188,101.9Z"/><path class="cls-34" d="M188,105.6h3.3a0,0,0,0,1,0,0v3.3a.5.5,0,0,1-.5.5H188a.5.5,0,0,1-.5-.5v-2.8A.5.5,0,0,1,188,105.6Z"/><path class="cls-34" d="M191.3,105.6h3.3a.5.5,0,0,1,.5.5v2.8a.5.5,0,0,1-.5.5h-2.8a.5.5,0,0,1-.5-.5v-3.3A0,0,0,0,1,191.3,105.6Z"/><rect class="cls-34" x="192.5" y="100.9" width="3.7" height="3.75" rx="0.5"/></g><g id="Debug"><path class="cls-35" d="M189.7,88.7"/><polyline class="cls-36" points="189.3 89.6 189.3 84.6 192.9 86.6 196.4 88.7 191.4 91.6"/><path class="cls-35" d="M189.9,91H188v1.1a.9.9,0,0,0,.9.8.9.9,0,0,0,1-.8V91Z"/><path class="cls-35" d="M188.4,90.9"/><path class="cls-35" d="M188.3,90.9a.6.6,0,1,1,1.2,0"/><line class="cls-37" x1="189.9" y1="91.7" x2="190.5" y2="91.7"/><line class="cls-37" x1="187.4" y1="91.7" x2="188" y2="91.7"/><line class="cls-37" x1="189.7" y1="92.6" x2="190.3" y2="93.1"/><path class="cls-37" d="M189.7,92.6"/><path class="cls-37" d="M188,91"/><line class="cls-37" x1="187.5" y1="90.6" x2="188" y2="91"/><line class="cls-37" x1="189.8" y1="91.1" x2="190.4" y2="90.6"/><line class="cls-37" x1="187.6" y1="93.1" x2="188.1" y2="92.6"/><path class="cls-37" d="M187.4,93.1"/></g><g id="Source"><rect id="Square" class="cls-38" x="183.8" y="64.4" width="16.3" height="16.28"/><g id="Source-2" data-name="Source"><circle class="cls-34" cx="194" cy="70.5" r="1"/><circle class="cls-34" cx="189.8" cy="69.3" r="1"/><circle class="cls-34" cx="189.8" cy="75.8" r="1"/><path class="cls-39" d="M194,71.5c-.8,3.8-3.4.3-4.2,3.3V70.3"/></g></g><g id="Search"><rect id="Square-2" data-name="Square" class="cls-38" x="183.8" y="48.1" width="16.3" height="16.28"/><path class="cls-4" d="M196.1,60l-2.2-2.1c0-.1,0-.1-.1-.1h-.2a3.2,3.2,0,0,0,.9-2.3,3.5,3.5,0,0,0-3.4-3.5,3.5,3.5,0,0,0-3.5,3.5,3.5,3.5,0,0,0,3.5,3.4,3.2,3.2,0,0,0,2.3-.9v.2h.1l2.1,2.2h.3l.2-.2A.2.2,0,0,0,196.1,60Zm-5-1.6a2.9,2.9,0,0,1-2.9-2.9,2.9,2.9,0,1,1,5.8,0A2.9,2.9,0,0,1,191.1,58.4Z"/></g><g id="File"><rect id="Square-3" data-name="Square" class="cls-38" x="183.8" y="31.8" width="16.3" height="16.28"/><path class="cls-15" d="M195.4,36.8l-.9-.9-.5-.2h-2.9a.9.9,0,0,0-.8.8v.8H189a.8.8,0,0,0-.8.8v5.3a.7.7,0,0,0,.8.8h3.7a.8.8,0,0,0,.8-.8v-.8h1.3a.7.7,0,0,0,.8-.8V37.4A1.4,1.4,0,0,0,195.4,36.8Zm-1.4-.5h.1l.9.9h-1Zm-1,7.1a.3.3,0,0,1-.3.3H189a.3.3,0,0,1-.3-.3V38.1a.3.3,0,0,1,.3-.3h1.3v4a.8.8,0,0,0,.8.8H193Zm2.1-1.6a.3.3,0,0,1-.3.3h-3.7a.3.3,0,0,1-.3-.3V36.5a.5.5,0,0,1,.3-.3h2.4v1.2a.4.4,0,0,0,.4.4h1.2Z"/><rect class="cls-15" x="183.8" y="31.8" width="0.7" height="16.32"/></g></g><g id="Workspaces"><text class="cls-17" transform="translate(209 41)">EXP<tspan class="cls-40" x="8.8" y="0">L</tspan><tspan x="11.3" y="0">ORER</tspan></text><g id="Dots"><circle class="cls-15" cx="267.2" cy="39.2" r="0.5"/><circle class="cls-15" cx="264.9" cy="39.2" r="0.5"/><circle class="cls-15" cx="262.6" cy="39.2" r="0.5"/></g><text class="cls-16" transform="translate(209.1 53.5)">OPEN EDI<tspan class="cls-41" x="22" y="0">T</tspan><tspan x="24.8" y="0">ORS</tspan></text><polyline class="cls-30" points="204.7 50.2 206.2 51.7 204.7 53.2"/></g><g id="Code_Lines" data-name="Code Lines"><rect class="cls-2" x="273.1" y="31.8" width="17.9" height="277.01"/><text class="cls-42" transform="translate(280.2 42.9)">1<tspan x="0" y="8">2</tspan><tspan x="0" y="16">3</tspan><tspan x="0" y="24">4</tspan><tspan x="0" y="32">5</tspan><tspan x="0" y="40">6</tspan><tspan x="0" y="48">7</tspan><tspan x="0" y="56">8</tspan><tspan x="0" y="72">9</tspan><tspan x="-1.8" y="88">10</tspan><tspan x="-1.8" y="96">11</tspan><tspan x="-1.8" y="104">12</tspan><tspan x="-1.8" y="112">13</tspan><tspan x="-1.8" y="120">14</tspan><tspan x="-1.8" y="128">15</tspan><tspan x="-1.8" y="136">16</tspan><tspan x="-1.8" y="144">17</tspan><tspan x="-1.8" y="152">18</tspan><tspan x="-1.8" y="160">19</tspan><tspan x="-1.8" y="168">20</tspan><tspan x="-1.8" y="176">21</tspan><tspan x="-1.8" y="184">22</tspan><tspan x="-1.8" y="192">23</tspan><tspan x="-1.8" y="200">24</tspan><tspan x="-1.8" y="208">25</tspan><tspan x="-1.8" y="216">26</tspan><tspan x="-1.8" y="224">27</tspan><tspan x="-1.8" y="232">28</tspan><tspan x="-1.8" y="240">29</tspan><tspan x="-1.8" y="248">30</tspan><tspan x="-1.8" y="256">31</tspan><tspan x="-1.8" y="264">32</tspan></text></g><g id="Actual_Code" data-name="Actual Code"><text class="cls-42" transform="translate(291 42.6)">&lt;!<tspan class="cls-43" x="7.2" y="0">DOCTYPE</tspan><tspan x="32.4" y="0"> </tspan><tspan class="cls-44" x="36" y="0">html</tspan><tspan x="50.4" y="0">&gt;</tspan><tspan x="0" y="8">&lt;</tspan><tspan class="cls-43" x="3.6" y="8">html</tspan><tspan x="18" y="8"> </tspan><tspan class="cls-44" x="21.6" y="8">lang</tspan><tspan class="cls-45" x="36" y="8">=</tspan><tspan class="cls-46" x="39.6" y="8">&quot;en&quot;</tspan><tspan x="54" y="8"> </tspan><tspan class="cls-44" x="57.6" y="8">class</tspan><tspan class="cls-45" x="75.6" y="8">=</tspan><tspan class="cls-46" x="79.2" y="8">&quot;notranslate&quot;</tspan><tspan x="126" y="8"> </tspan><tspan class="cls-44" x="129.6" y="8">translate</tspan><tspan class="cls-45" x="162" y="8">=</tspan><tspan class="cls-46" x="165.6" y="8">&quot;no&quot;</tspan><tspan x="180" y="8">&gt;</tspan><tspan x="0" y="24" xml:space="preserve">  &lt;</tspan><tspan class="cls-43" x="10.8" y="24">head</tspan><tspan x="25.2" y="24">&gt;</tspan><tspan x="0" y="32" xml:space="preserve">    &lt;</tspan><tspan class="cls-43" x="18" y="32">title</tspan><tspan x="36" y="32">&gt;</tspan><tspan class="cls-45" x="39.6" y="32">Si Min Chua | UI Design &amp; Dev</tspan><tspan x="144" y="32">&lt;/</tspan><tspan class="cls-43" x="151.2" y="32">title</tspan><tspan x="169.2" y="32">&gt;</tspan><tspan x="0" y="40" xml:space="preserve">    </tspan><tspan x="0" y="48" xml:space="preserve">    &lt;</tspan><tspan class="cls-43" x="18" y="48">meta</tspan><tspan x="32.4" y="48"> </tspan><tspan class="cls-44" x="36" y="48">http-equiv</tspan><tspan class="cls-45" x="72" y="48">=</tspan><tspan class="cls-46" x="75.6" y="48">&quot;X-UA-Compatible&quot;</tspan><tspan x="136.8" y="48"> </tspan><tspan class="cls-44" x="140.4" y="48">content</tspan><tspan class="cls-45" x="165.6" y="48">=</tspan><tspan class="cls-46" x="169.2" y="48">&quot;IE=edge&quot;</tspan><tspan x="201.6" y="48">&gt;</tspan><tspan x="0" y="56" xml:space="preserve">    &lt;</tspan><tspan class="cls-43" x="18" y="56">meta</tspan><tspan x="32.4" y="56"> </tspan><tspan class="cls-44" x="36" y="56">name</tspan><tspan class="cls-45" x="50.4" y="56">=</tspan><tspan class="cls-46" x="54" y="56">&quot;description&quot;</tspan><tspan x="100.8" y="56"> </tspan><tspan class="cls-44" x="104.4" y="56">content</tspan><tspan class="cls-45" x="129.6" y="56">=</tspan><tspan class="cls-46" x="133.2" y="56" xml:space="preserve">&quot;Singapore-based webmaster, content creator, designer, and  </tspan><tspan class="cls-46"><tspan x="0" y="64" xml:space="preserve">    developer. Let&apos;s connect!&quot;</tspan><tspan class="cls-47" x="108" y="64">&gt;</tspan></tspan><tspan x="0" y="72" xml:space="preserve">    &lt;</tspan><tspan class="cls-43" x="18" y="72">meta</tspan><tspan x="32.4" y="72"> </tspan><tspan class="cls-44" x="36" y="72">name</tspan><tspan class="cls-45" x="50.4" y="72">=</tspan><tspan class="cls-46" x="54" y="72">&quot;keywords&quot;</tspan><tspan x="90" y="72"> </tspan><tspan class="cls-44" x="93.6" y="72">content</tspan><tspan class="cls-45" x="118.8" y="72">=</tspan><tspan class="cls-46" x="122.4" y="72">&quot;Design, User Experience, User Interface, Interface Design, Frontend </tspan><tspan class="cls-46"><tspan x="0" y="80" xml:space="preserve">    Development, Graphic Design, Webmaster, Portfolio&quot;</tspan><tspan class="cls-47" x="194.4" y="80">&gt;</tspan></tspan><tspan x="0" y="88" xml:space="preserve">    &lt;</tspan><tspan class="cls-43" x="18" y="88">meta</tspan><tspan x="32.4" y="88"> </tspan><tspan class="cls-44" x="36" y="88">name</tspan><tspan class="cls-45" x="50.4" y="88">=</tspan><tspan class="cls-46" x="54" y="88">&quot;author&quot;</tspan><tspan x="82.8" y="88"> </tspan><tspan class="cls-44" x="86.4" y="88">content</tspan><tspan class="cls-45" x="111.6" y="88">=</tspan><tspan class="cls-46" x="115.2" y="88">&quot;Chua Si Min&quot;</tspan><tspan x="162" y="88">&gt;</tspan><tspan x="0" y="96" xml:space="preserve">    &lt;</tspan><tspan class="cls-43" x="18" y="96">meta</tspan><tspan x="32.4" y="96"> </tspan><tspan class="cls-44" x="36" y="96">name</tspan><tspan class="cls-45" x="50.4" y="96">=</tspan><tspan class="cls-46" x="54" y="96">&quot;viewport&quot;</tspan><tspan x="90" y="96"> </tspan><tspan class="cls-44" x="93.6" y="96">content</tspan><tspan class="cls-45" x="118.8" y="96">=</tspan><tspan class="cls-46" x="122.4" y="96">&quot;width=device-width, initial-scale=1, minimum-scale=1&quot;</tspan><tspan x="316.9" y="96">&gt;</tspan><tspan x="0" y="104" xml:space="preserve">    &lt;</tspan><tspan class="cls-43" x="18" y="104">meta</tspan><tspan x="32.4" y="104"> </tspan><tspan class="cls-44" x="36" y="104">name</tspan><tspan class="cls-45" x="50.4" y="104">=</tspan><tspan class="cls-46" x="54" y="104">&quot;robots&quot;</tspan><tspan x="82.8" y="104"> </tspan><tspan class="cls-44" x="86.4" y="104">content</tspan><tspan class="cls-45" x="111.6" y="104">=</tspan><tspan class="cls-46" x="115.2" y="104">&quot;noindex&quot;</tspan><tspan x="147.6" y="104">&gt;</tspan><tspan x="0" y="120" xml:space="preserve">    &lt;</tspan><tspan class="cls-43" x="18" y="120">link</tspan><tspan x="32.4" y="120"> </tspan><tspan class="cls-44" x="36" y="120">rel</tspan><tspan class="cls-45" x="46.8" y="120">=</tspan><tspan class="cls-46" x="50.4" y="120">&quot;stylesheet&quot;</tspan><tspan x="93.6" y="120"> </tspan><tspan class="cls-44" x="97.2" y="120">href</tspan><tspan class="cls-45" x="111.6" y="120">=</tspan><tspan class="cls-46" x="115.2" y="120">&quot;css/style.css&quot;</tspan><tspan x="169.2" y="120">&gt;</tspan><tspan x="0" y="128" xml:space="preserve">    &lt;</tspan><tspan class="cls-43" x="18" y="128">link</tspan><tspan x="32.4" y="128"> </tspan><tspan class="cls-44" x="36" y="128">rel</tspan><tspan class="cls-45" x="46.8" y="128">=</tspan><tspan class="cls-46" x="50.4" y="128">&quot;stylesheet&quot;</tspan><tspan x="93.6" y="128"> </tspan><tspan class="cls-44" x="97.2" y="128">href</tspan><tspan class="cls-45" x="111.6" y="128">=</tspan><tspan class="cls-46" x="115.2" y="128">&quot;css/bootstrap.min.css&quot;</tspan><tspan x="198" y="128">&gt;</tspan><tspan x="0" y="136" xml:space="preserve">    &lt;</tspan><tspan class="cls-43" x="18" y="136">link</tspan><tspan x="32.4" y="136"> </tspan><tspan class="cls-44" x="36" y="136">rel</tspan><tspan class="cls-45" x="46.8" y="136">=</tspan><tspan class="cls-46" x="50.4" y="136">&quot;stylesheet&quot;</tspan><tspan x="93.6" y="136"> </tspan><tspan class="cls-44" x="97.2" y="136">href</tspan><tspan class="cls-45" x="111.6" y="136">=</tspan><tspan class="cls-46" x="115.2" y="136">&quot;css/fontawesome.min.css&quot;</tspan><tspan x="205.2" y="136">&gt;</tspan><tspan x="0" y="144" xml:space="preserve">    &lt;</tspan><tspan class="cls-43" x="18" y="144">link</tspan><tspan x="32.4" y="144"> </tspan><tspan class="cls-44" x="36" y="144">rel</tspan><tspan class="cls-45" x="46.8" y="144">=</tspan><tspan class="cls-46" x="50.4" y="144">&quot;shortcut icon&quot;</tspan><tspan x="104.4" y="144"> </tspan><tspan class="cls-44" x="108" y="144">href</tspan><tspan class="cls-45" x="122.4" y="144">=</tspan><tspan class="cls-46" x="126" y="144">&quot;img/cat.png&quot;</tspan><tspan x="172.8" y="144">&gt;</tspan><tspan x="0" y="152" xml:space="preserve">    &lt;</tspan><tspan class="cls-43" x="18" y="152">script</tspan><tspan x="39.6" y="152"> </tspan><tspan class="cls-44" x="43.2" y="152">src</tspan><tspan class="cls-45" x="54" y="152">=</tspan><tspan class="cls-46" x="57.6" y="152">&quot;js/jquery.min.js&quot;</tspan><tspan x="122.4" y="152">&gt;&lt;/</tspan><tspan class="cls-43" x="133.2" y="152">script</tspan><tspan x="154.8" y="152">&gt;</tspan><tspan x="0" y="160" xml:space="preserve">    &lt;</tspan><tspan class="cls-43" x="18" y="160">script</tspan><tspan x="39.6" y="160"> </tspan><tspan class="cls-44" x="43.2" y="160">src</tspan><tspan class="cls-45" x="54" y="160">=</tspan><tspan class="cls-46" x="57.6" y="160">&quot;js/bootstrap.bundle.min.js&quot;</tspan><tspan x="158.4" y="160">&gt;&lt;/</tspan><tspan class="cls-43" x="169.2" y="160">script</tspan><tspan x="190.8" y="160">&gt;</tspan><tspan x="0" y="168" xml:space="preserve">    &lt;</tspan><tspan class="cls-43" x="18" y="168">script</tspan><tspan x="39.6" y="168"> </tspan><tspan class="cls-44" x="43.2" y="168">src</tspan><tspan class="cls-45" x="54" y="168">=</tspan><tspan class="cls-46" x="57.6" y="168">&quot;https://player.vimeo.com/api/player.js&quot;</tspan><tspan x="201.6" y="168">&gt;&lt;/</tspan><tspan class="cls-43" x="212.4" y="168">script</tspan><tspan x="234" y="168">&gt;</tspan><tspan x="0" y="184" xml:space="preserve">    &lt;</tspan><tspan class="cls-43" x="18" y="184">link</tspan><tspan x="32.4" y="184"> </tspan><tspan class="cls-44" x="36" y="184">rel</tspan><tspan class="cls-45" x="46.8" y="184">=</tspan><tspan class="cls-46" x="50.4" y="184">&quot;stylesheet&quot;</tspan><tspan x="93.6" y="184"> </tspan><tspan class="cls-44" x="97.2" y="184">href</tspan><tspan class="cls-45" x="111.6" y="184">=</tspan><tspan class="cls-46" x="115.2" y="184">&quot;https://use.typekit.net/aul1yzr.css&quot;</tspan><tspan x="248.4" y="184">&gt;</tspan><tspan x="0" y="200" xml:space="preserve">  &lt;/</tspan><tspan class="cls-43" x="14.4" y="200">head</tspan><tspan x="28.8" y="200">&gt;</tspan><tspan x="0" y="216" xml:space="preserve">  &lt;</tspan><tspan class="cls-43" x="10.8" y="216">body</tspan><tspan x="25.2" y="216">&gt;</tspan><tspan x="0" y="232" xml:space="preserve">    </tspan><tspan class="cls-48" x="14.4" y="232">&lt;!-- For Browser Pushstates --&gt;</tspan><tspan x="0" y="240" xml:space="preserve">      &lt;</tspan><tspan class="cls-43" x="25.2" y="240">div</tspan><tspan x="36" y="240"> </tspan><tspan class="cls-44" x="39.6" y="240">id</tspan><tspan class="cls-45" x="46.8" y="240">=</tspan><tspan class="cls-46" x="50.4" y="240">&quot;pseudo-state&quot;</tspan><tspan x="100.8" y="240">&gt;</tspan><tspan class="cls-45" x="104.4" y="240">none</tspan><tspan x="118.8" y="240">&lt;/</tspan><tspan class="cls-43" x="126" y="240">div</tspan><tspan x="136.8" y="240">&gt;</tspan><tspan x="0" y="256" xml:space="preserve">    </tspan><tspan class="cls-48" x="14.4" y="256">&lt;!-- Navigation --&gt;</tspan><tspan x="0" y="264" xml:space="preserve">      &lt;</tspan><tspan class="cls-43" x="25.2" y="264">nav</tspan><tspan x="36" y="264"> </tspan><tspan class="cls-44" x="39.6" y="264">class</tspan><tspan class="cls-45" x="57.6" y="264">=</tspan><tspan class="cls-46" x="61.2" y="264">&quot;navbar navbar-expand-lg navbar-light fixed-top&quot;</tspan><tspan x="234" y="264"> </tspan><tspan class="cls-44" x="237.6" y="264">id</tspan><tspan class="cls-45" x="244.8" y="264">=</tspan><tspan class="cls-46" x="248.4" y="264">&quot;nav&quot;</tspan><tspan x="266.4" y="264">&gt;</tspan></text><line class="cls-49" x1="291.4" y1="52.2" x2="291.4" y2="308.8"/><line class="cls-49" x1="298.8" y1="260.3" x2="298.8" y2="308.8"/><line class="cls-49" x1="306" y1="299.3" x2="306" y2="308.8"/><path class="cls-49" d="M306,299.3"/><path class="cls-49" d="M306,293.7"/><line class="cls-49" x1="306" y1="274.9" x2="306" y2="293.7"/><path class="cls-49" d="M298.8,260.3"/><line class="cls-49" x1="298.8" y1="67.2" x2="298.8" y2="237.6"/></g></g></svg>